<svg id="kity_svg_6" xmlns="http://www.w3.org/2000/svg" xmlns:xlink="http://www.w3.org/1999/xlink" version="1.1" width="1252" height="1528" style="background: rgb(251, 251, 251); visibility: visible;" viewBox="0 0 1252 1528"><defs id="kity_defs_7"><linearGradient id="kity_linearGradient_17" x1="0" y1="0" x2="0" y2="1"><stop id="kity_stop_18" offset="0" stop-color="rgb(255, 255, 255)"></stop><stop id="kity_stop_19" offset="1" stop-color="rgb(204, 204, 204)"></stop></linearGradient><marker id="kity_marker_2" orient="auto" refX="6" refY="0" viewBox="-7 -7 14 14" markerWidth="7" markerHeight="7" markerUnits="userSpaceOnUse"><path id="kity_path_3" fill="rgb(115, 161, 191)" stroke="none" d="M6,0A6,6,0,1,1,-6,0A6,6,0,1,1,6,0"></path></marker></defs><g id="kity_g_8"><g id="minder1" text-rendering="optimize-speed"><g id="minder_connect_group1"><path id="kity_path_31" fill="none" stroke="rgb(115, 161, 191)" stroke-width="1" d="M625.5,731.5A150,644,0,0,1,775.5,87.5"></path><path id="kity_path_33" fill="none" stroke="rgb(115, 161, 191)" stroke-width="1" d="M855.5,87.5C870.5,87.5,870.5,45.5,885.5,45.5L987.5,45.5"></path><path id="kity_path_35" fill="none" stroke="rgb(115, 161, 191)" stroke-width="1" d="M855.5,87.5C870.5,87.5,870.5,97.5,885.5,97.5L987.5,97.5"></path><path id="kity_path_37" fill="none" stroke="rgb(115, 161, 191)" stroke-width="1" d="M855.5,87.5C870.5,87.5,870.5,158.5,885.5,158.5L976.5,158.5"></path><path id="kity_path_39" fill="none" stroke="rgb(115, 161, 191)" stroke-width="1" d="M976.5,158.5C991.5,158.5,991.5,159.5,1006.5,159.5L1174.5,159.5"></path><path id="kity_path_41" fill="none" stroke="rgb(115, 161, 191)" stroke-width="1" d="M625.5,731.5A150,460,0,0,1,775.5,271.5"></path><path id="kity_path_43" fill="none" stroke="rgb(115, 161, 191)" stroke-width="1" d="M882.5,271.5C897.5,271.5,897.5,228.5,912.5,228.5L1063.5,228.5"></path><path id="kity_path_45" fill="none" stroke="rgb(115, 161, 191)" stroke-width="1" d="M882.5,271.5C897.5,271.5,897.5,288.5,912.5,288.5L1015.5,288.5"></path><path id="kity_path_47" fill="none" stroke="rgb(115, 161, 191)" stroke-width="1" d="M882.5,271.5C897.5,271.5,897.5,350.5,912.5,350.5L1056.5,350.5"></path><path id="kity_path_49" fill="none" stroke="rgb(115, 161, 191)" stroke-width="1" d="M625.5,731.5A150,62,0,0,1,775.5,669.5"></path><path id="kity_path_51" fill="none" stroke="rgb(115, 161, 191)" stroke-width="1" d="M854.5,669.5C869.5,669.5,869.5,420.5,884.5,420.5L987.5,420.5"></path><path id="kity_path_53" fill="none" stroke="rgb(115, 161, 191)" stroke-width="1" d="M854.5,669.5C869.5,669.5,869.5,512.5,884.5,512.5L1010.5,512.5"></path><path id="kity_path_55" fill="none" stroke="rgb(115, 161, 191)" stroke-width="1" d="M1010.5,512.5C1025.5,512.5,1025.5,482.5,1040.5,482.5L1232.5,482.5"></path><path id="kity_path_57" fill="none" stroke="rgb(115, 161, 191)" stroke-width="1" d="M1010.5,512.5C1025.5,512.5,1025.5,544.5,1040.5,544.5L1123.5,544.5"></path><path id="kity_path_59" fill="none" stroke="rgb(115, 161, 191)" stroke-width="1" d="M854.5,669.5C869.5,669.5,869.5,604.5,884.5,604.5L975.5,604.5"></path><path id="kity_path_61" fill="none" stroke="rgb(115, 161, 191)" stroke-width="1" d="M854.5,669.5C869.5,669.5,869.5,722.5,884.5,722.5L987.5,722.5"></path><path id="kity_path_63" fill="none" stroke="rgb(115, 161, 191)" stroke-width="1" d="M987.5,722.5C1002.5,722.5,1002.5,656.5,1017.5,656.5L1070.5,656.5"></path><path id="kity_path_65" fill="none" stroke="rgb(115, 161, 191)" stroke-width="1" d="M987.5,722.5C1002.5,722.5,1002.5,718.5,1017.5,718.5L1100.5,718.5"></path><path id="kity_path_67" fill="none" stroke="rgb(115, 161, 191)" stroke-width="1" d="M987.5,722.5C1002.5,722.5,1002.5,780.5,1017.5,780.5L1124.5,780.5"></path><path id="kity_path_69" fill="none" stroke="rgb(115, 161, 191)" stroke-width="1" d="M854.5,669.5C869.5,669.5,869.5,840.5,884.5,840.5L1019.5,840.5"></path><path id="kity_path_71" fill="none" stroke="rgb(115, 161, 191)" stroke-width="1" d="M854.5,669.5C869.5,669.5,869.5,892.5,884.5,892.5L991.5,892.5"></path><path id="kity_path_73" fill="none" stroke="rgb(115, 161, 191)" stroke-width="1" d="M854.5,669.5C869.5,669.5,869.5,954.5,884.5,954.5L991.5,954.5"></path><path id="kity_path_75" fill="none" stroke="rgb(115, 161, 191)" stroke-width="1" d="M625.5,731.5A150,367,0,0,0,775.5,1098.5"></path><path id="kity_path_77" fill="none" stroke="rgb(115, 161, 191)" stroke-width="1" d="M845.5,1098.5C860.5,1098.5,860.5,1026.5,875.5,1026.5L1007.5,1026.5"></path><path id="kity_path_79" fill="none" stroke="rgb(115, 161, 191)" stroke-width="1" d="M845.5,1098.5C860.5,1098.5,860.5,1086.5,875.5,1086.5L978.5,1086.5"></path><path id="kity_path_81" fill="none" stroke="rgb(115, 161, 191)" stroke-width="1" d="M845.5,1098.5C860.5,1098.5,860.5,1146.5,875.5,1146.5L966.5,1146.5"></path><path id="kity_path_83" fill="none" stroke="rgb(115, 161, 191)" stroke-width="1" d="M845.5,1098.5C860.5,1098.5,860.5,1208.5,875.5,1208.5L1039.5,1208.5"></path><path id="kity_path_85" fill="none" stroke="rgb(115, 161, 191)" stroke-width="1" d="M625.5,731.5A150,644,0,0,0,775.5,1375.5"></path><path id="kity_path_87" fill="none" stroke="rgb(115, 161, 191)" stroke-width="1" d="M839.5,1375.5C854.5,1375.5,854.5,1280.5,869.5,1280.5L1011.5,1280.5"></path><path id="kity_path_89" fill="none" stroke="rgb(115, 161, 191)" stroke-width="1" d="M839.5,1375.5C854.5,1375.5,854.5,1342.5,869.5,1342.5L999.5,1342.5"></path><path id="kity_path_91" fill="none" stroke="rgb(115, 161, 191)" stroke-width="1" d="M839.5,1375.5C854.5,1375.5,854.5,1394.5,869.5,1394.5L927.5,1394.5"></path><path id="kity_path_93" fill="none" stroke="rgb(115, 161, 191)" stroke-width="1" d="M839.5,1375.5C854.5,1375.5,854.5,1446.5,869.5,1446.5L930.5,1446.5"></path><path id="kity_path_95" fill="none" stroke="rgb(115, 161, 191)" stroke-width="1" d="M839.5,1375.5C854.5,1375.5,854.5,1508.5,869.5,1508.5L1025.5,1508.5"></path><path id="kity_path_97" fill="none" stroke="rgb(115, 161, 191)" stroke-width="1" d="M625.5,731.5A150,426,0,0,0,475.5,305.5"></path><path id="kity_path_99" fill="none" stroke="rgb(115, 161, 191)" stroke-width="1" d="M372.5,305.5C357.5,305.5,357.5,89.5,342.5,89.5L234.5,89.5"></path><path id="kity_path_101" fill="none" stroke="rgb(115, 161, 191)" stroke-width="1" d="M372.5,305.5C357.5,305.5,357.5,149.5,342.5,149.5L263.5,149.5"></path><path id="kity_path_103" fill="none" stroke="rgb(115, 161, 191)" stroke-width="1" d="M372.5,305.5C357.5,305.5,357.5,236.5,342.5,236.5L263.5,236.5"></path><path id="kity_path_105" fill="none" stroke="rgb(115, 161, 191)" stroke-width="1" d="M263.5,236.5C248.5,236.5,248.5,201.5,233.5,201.5L35.5,201.5"></path><path id="kity_path_107" fill="none" stroke="rgb(115, 161, 191)" stroke-width="1" d="M263.5,236.5C248.5,236.5,248.5,263.5,233.5,263.5L126.5,263.5"></path><path id="kity_path_109" fill="none" stroke="rgb(115, 161, 191)" stroke-width="1" d="M372.5,305.5C357.5,305.5,357.5,325.5,342.5,325.5L234.5,325.5"></path><path id="kity_path_111" fill="none" stroke="rgb(115, 161, 191)" stroke-width="1" d="M372.5,305.5C357.5,305.5,357.5,387.5,342.5,387.5L195.5,387.5"></path><path id="kity_path_113" fill="none" stroke="rgb(115, 161, 191)" stroke-width="1" d="M372.5,305.5C357.5,305.5,357.5,447.5,342.5,447.5L251.5,447.5"></path><path id="kity_path_115" fill="none" stroke="rgb(115, 161, 191)" stroke-width="1" d="M372.5,305.5C357.5,305.5,357.5,507.5,342.5,507.5L170.5,507.5"></path><path id="kity_path_117" fill="none" stroke="rgb(115, 161, 191)" stroke-width="1" d="M372.5,305.5C357.5,305.5,357.5,559.5,342.5,559.5L288.5,559.5"></path><path id="kity_path_119" fill="none" stroke="rgb(115, 161, 191)" stroke-width="1" d="M625.5,731.5A150,75,0,0,0,475.5,656.5"></path><path id="kity_path_121" fill="none" stroke="rgb(115, 161, 191)" stroke-width="1" d="M357.5,656.5C342.5,656.5,342.5,632.5,327.5,632.5L219.5,632.5"></path><path id="kity_path_123" fill="none" stroke="rgb(115, 161, 191)" stroke-width="1" d="M357.5,656.5C342.5,656.5,342.5,719.5,327.5,719.5L212.5,719.5"></path><path id="kity_path_125" fill="none" stroke="rgb(115, 161, 191)" stroke-width="1" d="M212.5,719.5C197.5,719.5,197.5,684.5,182.5,684.5L20.5,684.5"></path><path id="kity_path_127" fill="none" stroke="rgb(115, 161, 191)" stroke-width="1" d="M212.5,719.5C197.5,719.5,197.5,746.5,182.5,746.5L50.5,746.5"></path><path id="kity_path_129" fill="none" stroke="rgb(115, 161, 191)" stroke-width="1" d="M625.5,731.5A150,93,0,0,1,475.5,824.5"></path><path id="kity_path_131" fill="none" stroke="rgb(115, 161, 191)" stroke-width="1" d="M352.5,824.5C337.5,824.5,337.5,817.5,322.5,817.5L166.5,817.5"></path><path id="kity_path_133" fill="none" stroke="rgb(115, 161, 191)" stroke-width="1" d="M352.5,824.5C337.5,824.5,337.5,869.5,322.5,869.5L216.5,869.5"></path><path id="kity_path_135" fill="none" stroke="rgb(115, 161, 191)" stroke-width="1" d="M625.5,731.5A150,191,0,0,1,475.5,922.5"></path><path id="kity_path_137" fill="none" stroke="rgb(115, 161, 191)" stroke-width="1" d="M327.5,922.5C312.5,922.5,312.5,941.5,297.5,941.5L214.5,941.5"></path><path id="kity_path_139" fill="none" stroke="rgb(115, 161, 191)" stroke-width="1" d="M625.5,731.5A150,429,0,0,1,475.5,1160.5"></path><path id="kity_path_141" fill="none" stroke="rgb(115, 161, 191)" stroke-width="1" d="M413.5,1160.5C398.5,1160.5,398.5,1003.5,383.5,1003.5L306.5,1003.5"></path><path id="kity_path_143" fill="none" stroke="rgb(115, 161, 191)" stroke-width="1" d="M413.5,1160.5C398.5,1160.5,398.5,1065.5,383.5,1065.5L302.5,1065.5"></path><path id="kity_path_145" fill="none" stroke="rgb(115, 161, 191)" stroke-width="1" d="M413.5,1160.5C398.5,1160.5,398.5,1117.5,383.5,1117.5L317.5,1117.5"></path><path id="kity_path_147" fill="none" stroke="rgb(115, 161, 191)" stroke-width="1" d="M413.5,1160.5C398.5,1160.5,398.5,1179.5,383.5,1179.5L283.5,1179.5"></path><path id="kity_path_149" fill="none" stroke="rgb(115, 161, 191)" stroke-width="1" d="M413.5,1160.5C398.5,1160.5,398.5,1231.5,383.5,1231.5L329.5,1231.5"></path><path id="kity_path_151" fill="none" stroke="rgb(115, 161, 191)" stroke-width="1" d="M413.5,1160.5C398.5,1160.5,398.5,1283.5,383.5,1283.5L288.5,1283.5"></path><path id="kity_path_153" fill="none" stroke="rgb(115, 161, 191)" stroke-width="1" d="M413.5,1160.5C398.5,1160.5,398.5,1345.5,383.5,1345.5L300.5,1345.5"></path></g><g id="minder_node1"><path id="node_outline1" fill="rgb(115, 161, 191)" stroke="rgb(115, 161, 191)" d="M598.5,711.5h54a5,5,0,0,1,5,5v30a5,5,0,0,1,-5,5h-54a5,5,0,0,1,-5,-5v-30a5,5,0,0,1,5,-5z" stroke-width="3"></path><g id="node_text1" fill="white"><text id="kity_text_22" text-rendering="inherit" font-size="16" dy=".8em" y="723.5" x="617.5">FE</text></g></g><g id="kity_g_12"><path id="kity_path_13" fill="none" stroke="none" d="M617.5,731.5h0v0h0z"></path></g><g id="kity_g_14"><path id="kity_path_15" fill="none" stroke="none" d="M617.5,731.5h0v0h0z"></path><path id="kity_path_16" fill="none" stroke="none"></path></g><g id="minder_node2"><g id="node_expander5" style="cursor: pointer;"><path id="kity_path_572" fill="white" stroke="gray" d="M776.5,87.5A6,6,0,1,1,764.5,87.5A6,6,0,1,1,776.5,87.5"></path><path id="kity_path_573" fill="none" stroke="gray" d="M766,87.5L775,87.5"></path></g><path id="node_outline6" fill="rgb(238, 243, 246)" stroke="rgb(115, 161, 191)" d="M780.5,74.5h72a3,3,0,0,1,3,3v20a3,3,0,0,1,-3,3h-72a3,3,0,0,1,-3,-3v-20a3,3,0,0,1,3,-3z" stroke-width="1"></path><g id="node_text6" fill="black"><text id="kity_text_163" text-rendering="inherit" font-size="14" dy=".8em" y="80.5" x="797.5">redux</text></g></g><g id="minder_node3"><g id="node_expander1" display="none" style="cursor: pointer;"><path id="kity_path_560" fill="white" stroke="gray" d="M895.5,31.5A6,6,0,1,1,883.5,31.5A6,6,0,1,1,895.5,31.5"></path><path id="kity_path_561" fill="none" stroke="gray"></path></g><path id="node_outline2" fill="none" stroke="none" d="M900.5,20.5h82a5,5,0,0,1,5,5v12a5,5,0,0,1,-5,5h-82a5,5,0,0,1,-5,-5v-12a5,5,0,0,1,5,-5z"></path><g id="node_text2" fill="black"><text id="kity_text_155" text-rendering="inherit" font-size="12" dy=".8em" y="25.5" x="905.5">同步数据流程</text></g></g><g id="minder_node4"><g id="node_expander2" display="none" style="cursor: pointer;"><path id="kity_path_563" fill="white" stroke="gray" d="M895.5,83.5A6,6,0,1,1,883.5,83.5A6,6,0,1,1,895.5,83.5"></path><path id="kity_path_564" fill="none" stroke="gray"></path></g><path id="node_outline3" fill="none" stroke="none" d="M900.5,72.5h82a5,5,0,0,1,5,5v12a5,5,0,0,1,-5,5h-82a5,5,0,0,1,-5,-5v-12a5,5,0,0,1,5,-5z"></path><g id="node_text3" fill="black"><text id="kity_text_157" text-rendering="inherit" font-size="12" dy=".8em" y="77.5" x="905.5">异步数据流程</text></g></g><g id="minder_node5"><g id="node_expander4" style="cursor: pointer;"><path id="kity_path_569" fill="white" stroke="gray" d="M895.5,140.5A6,6,0,1,1,883.5,140.5A6,6,0,1,1,895.5,140.5"></path><path id="kity_path_570" fill="none" stroke="gray" d="M885,140.5L894,140.5"></path></g><path id="node_outline5" fill="none" stroke="none" d="M900.5,125.5h71a5,5,0,0,1,5,5v20a5,5,0,0,1,-5,5h-71a5,5,0,0,1,-5,-5v-20a5,5,0,0,1,5,-5z"></path><g id="node_text5" fill="black"><text id="kity_text_161" text-rendering="inherit" font-size="12" dy=".8em" y="134.5" x="930.5">中间件</text></g><g id="node_priority1"><path id="kity_path_280" fill="#840023" stroke="none" d="M906,144c0,3.866,3.134,7,7,7h6c3.866,0,7,-3.134,7,-7V138H906V144z"></path><path id="kity_path_281" fill="#FF1200" stroke="none" d="M926,141c0,3.866,-3.134,7,-7,7H913c-3.866,0,-7,-3.134,-7,-7V138c0,-3.866,3.134,-7,7,-7h6c3.866,0,7,3.134,7,7V141z" opacity="0.8"></path><text id="kity_text_282" text-rendering="geometricPrecision" x="915" y="140.5" text-anchor="middle" font-style="italic" font-size="12" fill="white" dy="4">1</text></g></g><g id="minder_node6"><g id="node_expander3" display="none" style="cursor: pointer;"><path id="kity_path_566" fill="white" stroke="gray" d="M1016.5,140.5A6,6,0,1,1,1004.5,140.5A6,6,0,1,1,1016.5,140.5"></path><path id="kity_path_567" fill="none" stroke="gray"></path></g><path id="node_outline4" fill="none" stroke="none" d="M1021.5,124.5h148a5,5,0,0,1,5,5v22a5,5,0,0,1,-5,5h-148a5,5,0,0,1,-5,-5v-22a5,5,0,0,1,5,-5z"></path><g id="node_text4" fill="black"><text id="kity_text_159" text-rendering="inherit" font-size="12" dy=".8em" y="134.5" x="1026.5">redux middleware&#xa0;</text></g><a id="kity_a_428" xlink:href="https://zhuanlan.zhihu.com/p/20597452" target="_blank" xlink:title="https://zhuanlan.zhihu.com/p/20597452" style="cursor: pointer;"><path id="kity_path_430" fill="rgba(255, 255, 255, 0)" stroke="none" d="M1144.5,129.5h16a4,4,0,0,1,4,4v14a4,4,0,0,1,-4,4h-16a4,4,0,0,1,-4,-4v-14a4,4,0,0,1,4,-4z"></path><path id="kity_path_429" fill="#666" stroke="none" d="M1159.114,145.724h-1.278c-1.668,0,-3.07,-1.07,-3.599,-2.556h4.877c0.707,0,1.278,-0.571,1.278,-1.278V139.334c0,-0.707,-0.571,-1.278,-1.278,-1.278h-4.877C1154.766,136.571,1156.168,135.5,1157.836,135.5h1.278c2.116,0,3.834,1.716,3.834,3.834V141.89C1162.948,144.008,1161.23,145.724,1159.114,145.724zM1147.612,140.612c0,-0.707,0.573,-1.278,1.278,-1.278h7.668c0.707,0,1.278,0.571,1.278,1.278S1157.265,141.89,1156.558,141.89H1148.89C1148.185,141.89,1147.612,141.319,1147.612,140.612zM1145.056,139.334V141.89c0,0.707,0.573,1.278,1.278,1.278h4.877c-0.528,1.486,-1.932,2.556,-3.599,2.556H1146.334C1144.216,145.724,1142.5,144.008,1142.5,141.89V139.334C1142.5,137.216,1144.216,135.5,1146.334,135.5h1.278c1.667,0,3.071,1.071,3.599,2.556H1146.334C1145.629,138.056,1145.056,138.627,1145.056,139.334z"></path></a></g><g id="minder_node7"><g id="node_expander9" style="cursor: pointer;"><path id="kity_path_584" fill="white" stroke="gray" d="M776.5,271.5A6,6,0,1,1,764.5,271.5A6,6,0,1,1,776.5,271.5"></path><path id="kity_path_585" fill="none" stroke="gray" d="M766,271.5L775,271.5"></path></g><path id="node_outline10" fill="rgb(238, 243, 246)" stroke="rgb(115, 161, 191)" d="M780.5,258.5h99a3,3,0,0,1,3,3v20a3,3,0,0,1,-3,3h-99a3,3,0,0,1,-3,-3v-20a3,3,0,0,1,3,-3z" stroke-width="1"></path><g id="node_text10" fill="black"><text id="kity_text_171" text-rendering="inherit" font-size="14" dy=".8em" y="264.5" x="797.5">webpack</text></g></g><g id="minder_node8"><g id="node_expander6" display="none" style="cursor: pointer;"><path id="kity_path_575" fill="white" stroke="gray" d="M922.5,210.5A6,6,0,1,1,910.5,210.5A6,6,0,1,1,922.5,210.5"></path><path id="kity_path_576" fill="none" stroke="gray"></path></g><path id="node_outline7" fill="none" stroke="none" d="M927.5,195.5h131a5,5,0,0,1,5,5v20a5,5,0,0,1,-5,5h-131a5,5,0,0,1,-5,-5v-20a5,5,0,0,1,5,-5z"></path><g id="node_text7" fill="black"><text id="kity_text_165" text-rendering="inherit" font-size="12" dy=".8em" y="204.5" x="957.5">常用plugin及作用</text></g><g id="node_priority2"><path id="kity_path_285" fill="#B25000" stroke="none" d="M933,214c0,3.866,3.134,7,7,7h6c3.866,0,7,-3.134,7,-7V208H933V214z"></path><path id="kity_path_286" fill="#FF962E" stroke="none" d="M953,211c0,3.866,-3.134,7,-7,7H940c-3.866,0,-7,-3.134,-7,-7V208c0,-3.866,3.134,-7,7,-7h6c3.866,0,7,3.134,7,7V211z" opacity="0.8"></path><text id="kity_text_287" text-rendering="geometricPrecision" x="942" y="210.5" text-anchor="middle" font-style="italic" font-size="12" fill="white" dy="4">4</text></g></g><g id="minder_node9"><g id="node_expander7" display="none" style="cursor: pointer;"><path id="kity_path_578" fill="white" stroke="gray" d="M922.5,270.5A6,6,0,1,1,910.5,270.5A6,6,0,1,1,922.5,270.5"></path><path id="kity_path_579" fill="none" stroke="gray"></path></g><path id="node_outline8" fill="none" stroke="none" d="M927.5,255.5h83a5,5,0,0,1,5,5v20a5,5,0,0,1,-5,5h-83a5,5,0,0,1,-5,-5v-20a5,5,0,0,1,5,-5z"></path><g id="node_text8" fill="black"><text id="kity_text_167" text-rendering="inherit" font-size="12" dy=".8em" y="264.5" x="957.5">常用属性</text></g><g id="node_priority3"><path id="kity_path_290" fill="#B25000" stroke="none" d="M933,274c0,3.866,3.134,7,7,7h6c3.866,0,7,-3.134,7,-7V268H933V274z"></path><path id="kity_path_291" fill="#FF962E" stroke="none" d="M953,271c0,3.866,-3.134,7,-7,7H940c-3.866,0,-7,-3.134,-7,-7V268c0,-3.866,3.134,-7,7,-7h6c3.866,0,7,3.134,7,7V271z" opacity="0.8"></path><text id="kity_text_292" text-rendering="geometricPrecision" x="942" y="270.5" text-anchor="middle" font-style="italic" font-size="12" fill="white" dy="4">4</text></g></g><g id="minder_node10"><g id="node_expander8" display="none" style="cursor: pointer;"><path id="kity_path_581" fill="white" stroke="gray" d="M922.5,331.5A6,6,0,1,1,910.5,331.5A6,6,0,1,1,922.5,331.5"></path><path id="kity_path_582" fill="none" stroke="gray"></path></g><path id="node_outline9" fill="none" stroke="none" d="M927.5,315.5h124a5,5,0,0,1,5,5v22a5,5,0,0,1,-5,5h-124a5,5,0,0,1,-5,-5v-22a5,5,0,0,1,5,-5z"></path><g id="node_text9" fill="black"><text id="kity_text_169" text-rendering="inherit" font-size="12" dy=".8em" y="325.5" x="957.5">自定义组件</text></g><g id="node_priority4"><path id="kity_path_295" fill="#006300" stroke="none" d="M933,335c0,3.866,3.134,7,7,7h6c3.866,0,7,-3.134,7,-7V329H933V335z"></path><path id="kity_path_296" fill="#00AF00" stroke="none" d="M953,332c0,3.866,-3.134,7,-7,7H940c-3.866,0,-7,-3.134,-7,-7V329c0,-3.866,3.134,-7,7,-7h6c3.866,0,7,3.134,7,7V332z" opacity="0.8"></path><text id="kity_text_297" text-rendering="geometricPrecision" x="942" y="331.5" text-anchor="middle" font-style="italic" font-size="12" fill="white" dy="4">3</text></g><a id="kity_a_431" xlink:href="https://github.com/webpack/docs/wiki/how-to-write-a-plugin" target="_blank" xlink:title="https://github.com/webpack/docs/wiki/how-to-write-a-plugin" style="cursor: pointer;"><path id="kity_path_433" fill="rgba(255, 255, 255, 0)" stroke="none" d="M1026.5,320.5h16a4,4,0,0,1,4,4v14a4,4,0,0,1,-4,4h-16a4,4,0,0,1,-4,-4v-14a4,4,0,0,1,4,-4z"></path><path id="kity_path_432" fill="#666" stroke="none" d="M1041.114,336.724h-1.278c-1.668,0,-3.07,-1.07,-3.599,-2.556h4.877c0.707,0,1.278,-0.571,1.278,-1.278V330.334c0,-0.707,-0.571,-1.278,-1.278,-1.278h-4.877C1036.766,327.571,1038.168,326.5,1039.836,326.5h1.278c2.116,0,3.834,1.716,3.834,3.834V332.89C1044.948,335.008,1043.23,336.724,1041.114,336.724zM1029.612,331.612c0,-0.707,0.573,-1.278,1.278,-1.278h7.668c0.707,0,1.278,0.571,1.278,1.278S1039.265,332.89,1038.558,332.89H1030.89C1030.185,332.89,1029.612,332.319,1029.612,331.612zM1027.056,330.334V332.89c0,0.707,0.573,1.278,1.278,1.278h4.877c-0.528,1.486,-1.932,2.556,-3.599,2.556H1028.334C1026.216,336.724,1024.5,335.008,1024.5,332.89V330.334C1024.5,328.216,1026.216,326.5,1028.334,326.5h1.278c1.667,0,3.071,1.071,3.599,2.556H1028.334C1027.629,329.056,1027.056,329.627,1027.056,330.334z"></path></a></g><g id="minder_node11"><g id="node_expander22" style="cursor: pointer;"><path id="kity_path_623" fill="white" stroke="gray" d="M776.5,669.5A6,6,0,1,1,764.5,669.5A6,6,0,1,1,776.5,669.5"></path><path id="kity_path_624" fill="none" stroke="gray" d="M766,669.5L775,669.5"></path></g><path id="node_outline23" fill="rgb(238, 243, 246)" stroke="rgb(115, 161, 191)" d="M780.5,656.5h71a3,3,0,0,1,3,3v20a3,3,0,0,1,-3,3h-71a3,3,0,0,1,-3,-3v-20a3,3,0,0,1,3,-3z" stroke-width="1"></path><g id="node_text23" fill="black"><text id="kity_text_197" text-rendering="inherit" font-size="14" dy=".8em" y="662.5" x="797.5">react</text></g></g><g id="minder_node12"><g id="node_expander10" display="none" style="cursor: pointer;"><path id="kity_path_587" fill="white" stroke="gray" d="M894.5,402.5A6,6,0,1,1,882.5,402.5A6,6,0,1,1,894.5,402.5"></path><path id="kity_path_588" fill="none" stroke="gray"></path></g><path id="node_outline11" fill="none" stroke="none" d="M899.5,387.5h83a5,5,0,0,1,5,5v20a5,5,0,0,1,-5,5h-83a5,5,0,0,1,-5,-5v-20a5,5,0,0,1,5,-5z"></path><g id="node_text11" fill="black"><text id="kity_text_173" text-rendering="inherit" font-size="12" dy=".8em" y="396.5" x="929.5">生命周期</text></g><g id="node_priority5"><path id="kity_path_300" fill="#006300" stroke="none" d="M905,406c0,3.866,3.134,7,7,7h6c3.866,0,7,-3.134,7,-7V400H905V406z"></path><path id="kity_path_301" fill="#00AF00" stroke="none" d="M925,403c0,3.866,-3.134,7,-7,7H912c-3.866,0,-7,-3.134,-7,-7V400c0,-3.866,3.134,-7,7,-7h6c3.866,0,7,3.134,7,7V403z" opacity="0.8"></path><text id="kity_text_302" text-rendering="geometricPrecision" x="914" y="402.5" text-anchor="middle" font-style="italic" font-size="12" fill="white" dy="4">3</text></g></g><g id="minder_node13"><g id="node_expander13" style="cursor: pointer;"><path id="kity_path_596" fill="white" stroke="gray" d="M894.5,494.5A6,6,0,1,1,882.5,494.5A6,6,0,1,1,894.5,494.5"></path><path id="kity_path_597" fill="none" stroke="gray" d="M884,494.5L893,494.5"></path></g><path id="node_outline14" fill="none" stroke="none" d="M899.5,479.5h106a5,5,0,0,1,5,5v20a5,5,0,0,1,-5,5h-106a5,5,0,0,1,-5,-5v-20a5,5,0,0,1,5,-5z"></path><g id="node_text14" fill="black"><text id="kity_text_179" text-rendering="inherit" font-size="12" dy=".8em" y="488.5" x="929.5">setState机制</text></g><g id="node_priority7"><path id="kity_path_310" fill="#840023" stroke="none" d="M905,498c0,3.866,3.134,7,7,7h6c3.866,0,7,-3.134,7,-7V492H905V498z"></path><path id="kity_path_311" fill="#FF1200" stroke="none" d="M925,495c0,3.866,-3.134,7,-7,7H912c-3.866,0,-7,-3.134,-7,-7V492c0,-3.866,3.134,-7,7,-7h6c3.866,0,7,3.134,7,7V495z" opacity="0.8"></path><text id="kity_text_312" text-rendering="geometricPrecision" x="914" y="494.5" text-anchor="middle" font-style="italic" font-size="12" fill="white" dy="4">1</text></g></g><g id="minder_node14"><g id="node_expander11" display="none" style="cursor: pointer;"><path id="kity_path_590" fill="white" stroke="gray" d="M1050.5,463.5A6,6,0,1,1,1038.5,463.5A6,6,0,1,1,1050.5,463.5"></path><path id="kity_path_591" fill="none" stroke="gray"></path></g><path id="node_outline12" fill="none" stroke="none" d="M1055.5,447.5h172a5,5,0,0,1,5,5v22a5,5,0,0,1,-5,5h-172a5,5,0,0,1,-5,-5v-22a5,5,0,0,1,5,-5z"></path><g id="node_text12" fill="black"><text id="kity_text_175" text-rendering="inherit" font-size="12" dy=".8em" y="457.5" x="1085.5">为什么设计成异步的</text></g><g id="node_priority6"><path id="kity_path_305" fill="#840023" stroke="none" d="M1061,467c0,3.866,3.134,7,7,7h6c3.866,0,7,-3.134,7,-7V461H1061V467z"></path><path id="kity_path_306" fill="#FF1200" stroke="none" d="M1081,464c0,3.866,-3.134,7,-7,7H1068c-3.866,0,-7,-3.134,-7,-7V461c0,-3.866,3.134,-7,7,-7h6c3.866,0,7,3.134,7,7V464z" opacity="0.8"></path><text id="kity_text_307" text-rendering="geometricPrecision" x="1070" y="463.5" text-anchor="middle" font-style="italic" font-size="12" fill="white" dy="4">1</text></g><a id="kity_a_434" xlink:href="https://github.com/facebook/react/issues/11527#issuecomment-360199710" target="_blank" xlink:title="https://github.com/facebook/react/issues/11527#issuecomment-360199710" style="cursor: pointer;"><path id="kity_path_436" fill="rgba(255, 255, 255, 0)" stroke="none" d="M1202.5,452.5h16a4,4,0,0,1,4,4v14a4,4,0,0,1,-4,4h-16a4,4,0,0,1,-4,-4v-14a4,4,0,0,1,4,-4z"></path><path id="kity_path_435" fill="#666" stroke="none" d="M1217.114,468.724h-1.278c-1.668,0,-3.07,-1.07,-3.599,-2.556h4.877c0.707,0,1.278,-0.571,1.278,-1.278V462.334c0,-0.707,-0.571,-1.278,-1.278,-1.278h-4.877C1212.766,459.571,1214.168,458.5,1215.836,458.5h1.278c2.116,0,3.834,1.716,3.834,3.834V464.89C1220.948,467.008,1219.23,468.724,1217.114,468.724zM1205.612,463.612c0,-0.707,0.573,-1.278,1.278,-1.278h7.668c0.707,0,1.278,0.571,1.278,1.278S1215.265,464.89,1214.558,464.89H1206.89C1206.185,464.89,1205.612,464.319,1205.612,463.612zM1203.056,462.334V464.89c0,0.707,0.573,1.278,1.278,1.278h4.877c-0.528,1.486,-1.932,2.556,-3.599,2.556H1204.334C1202.216,468.724,1200.5,467.008,1200.5,464.89V462.334C1200.5,460.216,1202.216,458.5,1204.334,458.5h1.278c1.667,0,3.071,1.071,3.599,2.556H1204.334C1203.629,461.056,1203.056,461.627,1203.056,462.334z"></path></a></g><g id="minder_node15"><g id="node_expander12" display="none" style="cursor: pointer;"><path id="kity_path_593" fill="white" stroke="gray" d="M1050.5,525.5A6,6,0,1,1,1038.5,525.5A6,6,0,1,1,1050.5,525.5"></path><path id="kity_path_594" fill="none" stroke="gray"></path></g><path id="node_outline13" fill="none" stroke="none" d="M1055.5,509.5h63a5,5,0,0,1,5,5v22a5,5,0,0,1,-5,5h-63a5,5,0,0,1,-5,-5v-22a5,5,0,0,1,5,-5z"></path><g id="node_text13" fill="black"><text id="kity_text_177" text-rendering="inherit" font-size="12" dy=".8em" y="519.5" x="1060.5">中文</text></g><a id="kity_a_437" xlink:href="https://mp.weixin.qq.com/s/1g_CrEBmu8j8Tw6biAtMxw" target="_blank" xlink:title="https://mp.weixin.qq.com/s/1g_CrEBmu8j8Tw6biAtMxw" style="cursor: pointer;"><path id="kity_path_439" fill="rgba(255, 255, 255, 0)" stroke="none" d="M1093.5,514.5h16a4,4,0,0,1,4,4v14a4,4,0,0,1,-4,4h-16a4,4,0,0,1,-4,-4v-14a4,4,0,0,1,4,-4z"></path><path id="kity_path_438" fill="#666" stroke="none" d="M1108.114,530.724h-1.278c-1.668,0,-3.07,-1.07,-3.599,-2.556h4.877c0.707,0,1.278,-0.571,1.278,-1.278V524.334c0,-0.707,-0.571,-1.278,-1.278,-1.278h-4.877C1103.766,521.571,1105.168,520.5,1106.836,520.5h1.278c2.116,0,3.834,1.716,3.834,3.834V526.89C1111.948,529.008,1110.23,530.724,1108.114,530.724zM1096.612,525.612c0,-0.707,0.573,-1.278,1.278,-1.278h7.668c0.707,0,1.278,0.571,1.278,1.278S1106.265,526.89,1105.558,526.89H1097.89C1097.185,526.89,1096.612,526.319,1096.612,525.612zM1094.056,524.334V526.89c0,0.707,0.573,1.278,1.278,1.278h4.877c-0.528,1.486,-1.932,2.556,-3.599,2.556H1095.334C1093.216,530.724,1091.5,529.008,1091.5,526.89V524.334C1091.5,522.216,1093.216,520.5,1095.334,520.5h1.278c1.667,0,3.071,1.071,3.599,2.556H1095.334C1094.629,523.056,1094.056,523.627,1094.056,524.334z"></path></a></g><g id="minder_node16"><g id="node_expander14" display="none" style="cursor: pointer;"><path id="kity_path_599" fill="white" stroke="gray" d="M894.5,586.5A6,6,0,1,1,882.5,586.5A6,6,0,1,1,894.5,586.5"></path><path id="kity_path_600" fill="none" stroke="gray"></path></g><path id="node_outline15" fill="none" stroke="none" d="M899.5,571.5h71a5,5,0,0,1,5,5v20a5,5,0,0,1,-5,5h-71a5,5,0,0,1,-5,-5v-20a5,5,0,0,1,5,-5z"></path><g id="node_text15" fill="black"><text id="kity_text_181" text-rendering="inherit" font-size="12" dy=".8em" y="580.5" x="929.5">新特性</text></g><g id="node_priority8"><path id="kity_path_315" fill="#01467F" stroke="none" d="M905,590c0,3.866,3.134,7,7,7h6c3.866,0,7,-3.134,7,-7V584H905V590z"></path><path id="kity_path_316" fill="#0074FF" stroke="none" d="M925,587c0,3.866,-3.134,7,-7,7H912c-3.866,0,-7,-3.134,-7,-7V584c0,-3.866,3.134,-7,7,-7h6c3.866,0,7,3.134,7,7V587z" opacity="0.8"></path><text id="kity_text_317" text-rendering="geometricPrecision" x="914" y="586.5" text-anchor="middle" font-style="italic" font-size="12" fill="white" dy="4">2</text></g></g><g id="minder_node17"><g id="node_expander18" style="cursor: pointer;"><path id="kity_path_611" fill="white" stroke="gray" d="M894.5,704.5A6,6,0,1,1,882.5,704.5A6,6,0,1,1,894.5,704.5"></path><path id="kity_path_612" fill="none" stroke="gray" d="M884,704.5L893,704.5"></path></g><path id="node_outline19" fill="none" stroke="none" d="M899.5,689.5h83a5,5,0,0,1,5,5v20a5,5,0,0,1,-5,5h-83a5,5,0,0,1,-5,-5v-20a5,5,0,0,1,5,-5z"></path><g id="node_text19" fill="black"><text id="kity_text_189" text-rendering="inherit" font-size="12" dy=".8em" y="698.5" x="929.5">性能优化</text></g><g id="node_priority9"><path id="kity_path_320" fill="#840023" stroke="none" d="M905,708c0,3.866,3.134,7,7,7h6c3.866,0,7,-3.134,7,-7V702H905V708z"></path><path id="kity_path_321" fill="#FF1200" stroke="none" d="M925,705c0,3.866,-3.134,7,-7,7H912c-3.866,0,-7,-3.134,-7,-7V702c0,-3.866,3.134,-7,7,-7h6c3.866,0,7,3.134,7,7V705z" opacity="0.8"></path><text id="kity_text_322" text-rendering="geometricPrecision" x="914" y="704.5" text-anchor="middle" font-style="italic" font-size="12" fill="white" dy="4">1</text></g></g><g id="minder_node18"><g id="node_expander15" display="none" style="cursor: pointer;"><path id="kity_path_602" fill="white" stroke="gray" d="M1027.5,642.5A6,6,0,1,1,1015.5,642.5A6,6,0,1,1,1027.5,642.5"></path><path id="kity_path_603" fill="none" stroke="gray"></path></g><path id="node_outline16" fill="none" stroke="none" d="M1032.5,631.5h33a5,5,0,0,1,5,5v12a5,5,0,0,1,-5,5h-33a5,5,0,0,1,-5,-5v-12a5,5,0,0,1,5,-5z"></path><g id="node_text16" fill="black"><text id="kity_text_183" text-rendering="inherit" font-size="12" dy=".8em" y="636.5" x="1037.5">perf</text></g></g><g id="minder_node19"><g id="node_expander16" display="none" style="cursor: pointer;"><path id="kity_path_605" fill="white" stroke="gray" d="M1027.5,699.5A6,6,0,1,1,1015.5,699.5A6,6,0,1,1,1027.5,699.5"></path><path id="kity_path_606" fill="none" stroke="gray"></path></g><path id="node_outline17" fill="none" stroke="none" d="M1032.5,683.5h63a5,5,0,0,1,5,5v22a5,5,0,0,1,-5,5h-63a5,5,0,0,1,-5,-5v-22a5,5,0,0,1,5,-5z"></path><g id="node_text17" fill="black"><text id="kity_text_185" text-rendering="inherit" font-size="12" dy=".8em" y="693.5" x="1037.5">doc</text></g><a id="kity_a_440" xlink:href="https://reactjs.org/docs/optimizing-performance.html" target="_blank" xlink:title="文档(https://reactjs.org/docs/optimizing-performance.html)" style="cursor: pointer;"><path id="kity_path_442" fill="rgba(255, 255, 255, 0)" stroke="none" d="M1070.5,688.5h16a4,4,0,0,1,4,4v14a4,4,0,0,1,-4,4h-16a4,4,0,0,1,-4,-4v-14a4,4,0,0,1,4,-4z"></path><path id="kity_path_441" fill="#666" stroke="none" d="M1085.114,704.724h-1.278c-1.668,0,-3.07,-1.07,-3.599,-2.556h4.877c0.707,0,1.278,-0.571,1.278,-1.278V698.334c0,-0.707,-0.571,-1.278,-1.278,-1.278h-4.877C1080.766,695.571,1082.168,694.5,1083.836,694.5h1.278c2.116,0,3.834,1.716,3.834,3.834V700.89C1088.948,703.008,1087.23,704.724,1085.114,704.724zM1073.612,699.612c0,-0.707,0.573,-1.278,1.278,-1.278h7.668c0.707,0,1.278,0.571,1.278,1.278S1083.265,700.89,1082.558,700.89H1074.89C1074.185,700.89,1073.612,700.319,1073.612,699.612zM1071.056,698.334V700.89c0,0.707,0.573,1.278,1.278,1.278h4.877c-0.528,1.486,-1.932,2.556,-3.599,2.556H1072.334C1070.216,704.724,1068.5,703.008,1068.5,700.89V698.334C1068.5,696.216,1070.216,694.5,1072.334,694.5h1.278c1.667,0,3.071,1.071,3.599,2.556H1072.334C1071.629,697.056,1071.056,697.627,1071.056,698.334z"></path></a></g><g id="minder_node20"><g id="node_expander17" display="none" style="cursor: pointer;"><path id="kity_path_608" fill="white" stroke="gray" d="M1027.5,761.5A6,6,0,1,1,1015.5,761.5A6,6,0,1,1,1027.5,761.5"></path><path id="kity_path_609" fill="none" stroke="gray"></path></g><path id="node_outline18" fill="none" stroke="none" d="M1032.5,745.5h87a5,5,0,0,1,5,5v22a5,5,0,0,1,-5,5h-87a5,5,0,0,1,-5,-5v-22a5,5,0,0,1,5,-5z"></path><g id="node_text18" fill="black"><text id="kity_text_187" text-rendering="inherit" font-size="12" dy=".8em" y="755.5" x="1037.5">组件性能</text></g><a id="kity_a_443" xlink:href="http://taobaofed.org/blog/2016/08/12/optimized-react-components/" target="_blank" xlink:title="http://taobaofed.org/blog/2016/08/12/optimized-react-components/" style="cursor: pointer;"><path id="kity_path_445" fill="rgba(255, 255, 255, 0)" stroke="none" d="M1094.5,750.5h16a4,4,0,0,1,4,4v14a4,4,0,0,1,-4,4h-16a4,4,0,0,1,-4,-4v-14a4,4,0,0,1,4,-4z"></path><path id="kity_path_444" fill="#666" stroke="none" d="M1109.114,766.724h-1.278c-1.668,0,-3.07,-1.07,-3.599,-2.556h4.877c0.707,0,1.278,-0.571,1.278,-1.278V760.334c0,-0.707,-0.571,-1.278,-1.278,-1.278h-4.877C1104.766,757.571,1106.168,756.5,1107.836,756.5h1.278c2.116,0,3.834,1.716,3.834,3.834V762.89C1112.948,765.008,1111.23,766.724,1109.114,766.724zM1097.612,761.612c0,-0.707,0.573,-1.278,1.278,-1.278h7.668c0.707,0,1.278,0.571,1.278,1.278S1107.265,762.89,1106.558,762.89H1098.89C1098.185,762.89,1097.612,762.319,1097.612,761.612zM1095.056,760.334V762.89c0,0.707,0.573,1.278,1.278,1.278h4.877c-0.528,1.486,-1.932,2.556,-3.599,2.556H1096.334C1094.216,766.724,1092.5,765.008,1092.5,762.89V760.334C1092.5,758.216,1094.216,756.5,1096.334,756.5h1.278c1.667,0,3.071,1.071,3.599,2.556H1096.334C1095.629,759.056,1095.056,759.627,1095.056,760.334z"></path></a></g><g id="minder_node21"><g id="node_expander19" display="none" style="cursor: pointer;"><path id="kity_path_614" fill="white" stroke="gray" d="M894.5,822.5A6,6,0,1,1,882.5,822.5A6,6,0,1,1,894.5,822.5"></path><path id="kity_path_615" fill="none" stroke="gray"></path></g><path id="node_outline20" fill="none" stroke="none" d="M899.5,807.5h115a5,5,0,0,1,5,5v20a5,5,0,0,1,-5,5h-115a5,5,0,0,1,-5,-5v-20a5,5,0,0,1,5,-5z"></path><g id="node_text20" fill="black"><text id="kity_text_191" text-rendering="inherit" font-size="12" dy=".8em" y="816.5" x="929.5">batchUpdate</text></g><g id="node_priority10"><path id="kity_path_325" fill="#840023" stroke="none" d="M905,826c0,3.866,3.134,7,7,7h6c3.866,0,7,-3.134,7,-7V820H905V826z"></path><path id="kity_path_326" fill="#FF1200" stroke="none" d="M925,823c0,3.866,-3.134,7,-7,7H912c-3.866,0,-7,-3.134,-7,-7V820c0,-3.866,3.134,-7,7,-7h6c3.866,0,7,3.134,7,7V823z" opacity="0.8"></path><text id="kity_text_327" text-rendering="geometricPrecision" x="914" y="822.5" text-anchor="middle" font-style="italic" font-size="12" fill="white" dy="4">1</text></g></g><g id="minder_node22"><g id="node_expander20" display="none" style="cursor: pointer;"><path id="kity_path_617" fill="white" stroke="gray" d="M894.5,878.5A6,6,0,1,1,882.5,878.5A6,6,0,1,1,894.5,878.5"></path><path id="kity_path_618" fill="none" stroke="gray"></path></g><path id="node_outline21" fill="none" stroke="none" d="M899.5,867.5h87a5,5,0,0,1,5,5v12a5,5,0,0,1,-5,5h-87a5,5,0,0,1,-5,-5v-12a5,5,0,0,1,5,-5z"></path><g id="node_text21" fill="black"><text id="kity_text_193" text-rendering="inherit" font-size="12" dy=".8em" y="872.5" x="904.5">事件bind(this)</text></g></g><g id="minder_node23"><g id="node_expander21" display="none" style="cursor: pointer;"><path id="kity_path_620" fill="white" stroke="gray" d="M894.5,935.5A6,6,0,1,1,882.5,935.5A6,6,0,1,1,894.5,935.5"></path><path id="kity_path_621" fill="none" stroke="gray"></path></g><path id="node_outline22" fill="none" stroke="none" d="M899.5,919.5h87a5,5,0,0,1,5,5v22a5,5,0,0,1,-5,5h-87a5,5,0,0,1,-5,-5v-22a5,5,0,0,1,5,-5z"></path><g id="node_text22" fill="black"><text id="kity_text_195" text-rendering="inherit" font-size="12" dy=".8em" y="929.5" x="904.5">组件沟通</text></g><a id="kity_a_446" xlink:href="http://andrewhfarmer.com/component-communication/" target="_blank" xlink:title="http://andrewhfarmer.com/component-communication/" style="cursor: pointer;"><path id="kity_path_448" fill="rgba(255, 255, 255, 0)" stroke="none" d="M961.5,924.5h16a4,4,0,0,1,4,4v14a4,4,0,0,1,-4,4h-16a4,4,0,0,1,-4,-4v-14a4,4,0,0,1,4,-4z"></path><path id="kity_path_447" fill="#666" stroke="none" d="M976.114,940.724h-1.278c-1.668,0,-3.07,-1.07,-3.599,-2.556h4.877c0.707,0,1.278,-0.571,1.278,-1.278V934.334c0,-0.707,-0.571,-1.278,-1.278,-1.278h-4.877C971.766,931.571,973.168,930.5,974.836,930.5h1.278c2.116,0,3.834,1.716,3.834,3.834V936.89C979.948,939.008,978.23,940.724,976.114,940.724zM964.612,935.612c0,-0.707,0.573,-1.278,1.278,-1.278h7.668c0.707,0,1.278,0.571,1.278,1.278S974.265,936.89,973.558,936.89H965.89C965.185,936.89,964.612,936.319,964.612,935.612zM962.056,934.334V936.89c0,0.707,0.573,1.278,1.278,1.278h4.877c-0.528,1.486,-1.932,2.556,-3.599,2.556H963.334C961.216,940.724,959.5,939.008,959.5,936.89V934.334C959.5,932.216,961.216,930.5,963.334,930.5h1.278c1.667,0,3.071,1.071,3.599,2.556H963.334C962.629,933.056,962.056,933.627,962.056,934.334z"></path></a></g><g id="minder_node24"><g id="node_expander27" style="cursor: pointer;"><path id="kity_path_638" fill="white" stroke="gray" d="M776.5,1098.5A6,6,0,1,1,764.5,1098.5A6,6,0,1,1,776.5,1098.5"></path><path id="kity_path_639" fill="none" stroke="gray" d="M766,1098.5L775,1098.5"></path></g><path id="node_outline28" fill="rgb(238, 243, 246)" stroke="rgb(115, 161, 191)" d="M780.5,1085.5h62a3,3,0,0,1,3,3v20a3,3,0,0,1,-3,3h-62a3,3,0,0,1,-3,-3v-20a3,3,0,0,1,3,-3z" stroke-width="1"></path><g id="node_text28" fill="black"><text id="kity_text_207" text-rendering="inherit" font-size="14" dy=".8em" y="1091.5" x="797.5">http</text></g></g><g id="minder_node25"><g id="node_expander23" display="none" style="cursor: pointer;"><path id="kity_path_626" fill="white" stroke="gray" d="M885.5,1007.5A6,6,0,1,1,873.5,1007.5A6,6,0,1,1,885.5,1007.5"></path><path id="kity_path_627" fill="none" stroke="gray"></path></g><path id="node_outline24" fill="none" stroke="none" d="M890.5,991.5h112a5,5,0,0,1,5,5v22a5,5,0,0,1,-5,5h-112a5,5,0,0,1,-5,-5v-22a5,5,0,0,1,5,-5z"></path><g id="node_text24" fill="black"><text id="kity_text_199" text-rendering="inherit" font-size="12" dy=".8em" y="1001.5" x="920.5">常用属性</text></g><g id="node_priority11"><path id="kity_path_330" fill="#01467F" stroke="none" d="M896,1011c0,3.866,3.134,7,7,7h6c3.866,0,7,-3.134,7,-7V1005H896V1011z"></path><path id="kity_path_331" fill="#0074FF" stroke="none" d="M916,1008c0,3.866,-3.134,7,-7,7H903c-3.866,0,-7,-3.134,-7,-7V1005c0,-3.866,3.134,-7,7,-7h6c3.866,0,7,3.134,7,7V1008z" opacity="0.8"></path><text id="kity_text_332" text-rendering="geometricPrecision" x="905" y="1007.5" text-anchor="middle" font-style="italic" font-size="12" fill="white" dy="4">2</text></g><a id="kity_a_449" xlink:href="https://developer.mozilla.org/en-US/docs/Web/HTTP" target="_blank" xlink:title="https://developer.mozilla.org/en-US/docs/Web/HTTP" style="cursor: pointer;"><path id="kity_path_451" fill="rgba(255, 255, 255, 0)" stroke="none" d="M977.5,996.5h16a4,4,0,0,1,4,4v14a4,4,0,0,1,-4,4h-16a4,4,0,0,1,-4,-4v-14a4,4,0,0,1,4,-4z"></path><path id="kity_path_450" fill="#666" stroke="none" d="M992.114,1012.724h-1.278c-1.668,0,-3.07,-1.07,-3.599,-2.556h4.877c0.707,0,1.278,-0.571,1.278,-1.278V1006.334c0,-0.707,-0.571,-1.278,-1.278,-1.278h-4.877C987.766,1003.571,989.168,1002.5,990.836,1002.5h1.278c2.116,0,3.834,1.716,3.834,3.834V1008.89C995.948,1011.008,994.23,1012.724,992.114,1012.724zM980.612,1007.612c0,-0.707,0.573,-1.278,1.278,-1.278h7.668c0.707,0,1.278,0.571,1.278,1.278S990.265,1008.89,989.558,1008.89H981.89C981.185,1008.89,980.612,1008.319,980.612,1007.612zM978.056,1006.334V1008.89c0,0.707,0.573,1.278,1.278,1.278h4.877c-0.528,1.486,-1.932,2.556,-3.599,2.556H979.334C977.216,1012.724,975.5,1011.008,975.5,1008.89V1006.334C975.5,1004.216,977.216,1002.5,979.334,1002.5h1.278c1.667,0,3.071,1.071,3.599,2.556H979.334C978.629,1005.056,978.056,1005.627,978.056,1006.334z"></path></a></g><g id="minder_node26"><g id="node_expander24" display="none" style="cursor: pointer;"><path id="kity_path_629" fill="white" stroke="gray" d="M885.5,1068.5A6,6,0,1,1,873.5,1068.5A6,6,0,1,1,885.5,1068.5"></path><path id="kity_path_630" fill="none" stroke="gray"></path></g><path id="node_outline25" fill="none" stroke="none" d="M890.5,1053.5h83a5,5,0,0,1,5,5v20a5,5,0,0,1,-5,5h-83a5,5,0,0,1,-5,-5v-20a5,5,0,0,1,5,-5z"></path><g id="node_text25" fill="black"><text id="kity_text_201" text-rendering="inherit" font-size="12" dy=".8em" y="1062.5" x="920.5">访问过程</text></g><g id="node_priority12"><path id="kity_path_335" fill="#01467F" stroke="none" d="M896,1072c0,3.866,3.134,7,7,7h6c3.866,0,7,-3.134,7,-7V1066H896V1072z"></path><path id="kity_path_336" fill="#0074FF" stroke="none" d="M916,1069c0,3.866,-3.134,7,-7,7H903c-3.866,0,-7,-3.134,-7,-7V1066c0,-3.866,3.134,-7,7,-7h6c3.866,0,7,3.134,7,7V1069z" opacity="0.8"></path><text id="kity_text_337" text-rendering="geometricPrecision" x="905" y="1068.5" text-anchor="middle" font-style="italic" font-size="12" fill="white" dy="4">2</text></g></g><g id="minder_node27"><g id="node_expander25" display="none" style="cursor: pointer;"><path id="kity_path_632" fill="white" stroke="gray" d="M885.5,1128.5A6,6,0,1,1,873.5,1128.5A6,6,0,1,1,885.5,1128.5"></path><path id="kity_path_633" fill="none" stroke="gray"></path></g><path id="node_outline26" fill="none" stroke="none" d="M890.5,1113.5h71a5,5,0,0,1,5,5v20a5,5,0,0,1,-5,5h-71a5,5,0,0,1,-5,-5v-20a5,5,0,0,1,5,-5z"></path><g id="node_text26" fill="black"><text id="kity_text_203" text-rendering="inherit" font-size="12" dy=".8em" y="1122.5" x="920.5">tcp/ip</text></g><g id="node_priority13"><path id="kity_path_340" fill="#01467F" stroke="none" d="M896,1132c0,3.866,3.134,7,7,7h6c3.866,0,7,-3.134,7,-7V1126H896V1132z"></path><path id="kity_path_341" fill="#0074FF" stroke="none" d="M916,1129c0,3.866,-3.134,7,-7,7H903c-3.866,0,-7,-3.134,-7,-7V1126c0,-3.866,3.134,-7,7,-7h6c3.866,0,7,3.134,7,7V1129z" opacity="0.8"></path><text id="kity_text_342" text-rendering="geometricPrecision" x="905" y="1128.5" text-anchor="middle" font-style="italic" font-size="12" fill="white" dy="4">2</text></g></g><g id="minder_node28"><g id="node_expander26" display="none" style="cursor: pointer;"><path id="kity_path_635" fill="white" stroke="gray" d="M885.5,1189.5A6,6,0,1,1,873.5,1189.5A6,6,0,1,1,885.5,1189.5"></path><path id="kity_path_636" fill="none" stroke="gray"></path></g><path id="node_outline27" fill="none" stroke="none" d="M890.5,1173.5h144a5,5,0,0,1,5,5v22a5,5,0,0,1,-5,5h-144a5,5,0,0,1,-5,-5v-22a5,5,0,0,1,5,-5z"></path><g id="node_text27" fill="black"><text id="kity_text_205" text-rendering="inherit" font-size="12" dy=".8em" y="1183.5" x="895.5">304 vs 200(cache)</text></g><a id="kity_a_452" xlink:href="https://stackoverflow.com/questions/1665082/what-is-the-difference-between-http-status-code-200-cache-vs-status-code-304" target="_blank" xlink:title="https://stackoverflow.com/questions/1665082/what-is-the-difference-between-http-status-code-200-cache-vs-status-code-304" style="cursor: pointer;"><path id="kity_path_454" fill="rgba(255, 255, 255, 0)" stroke="none" d="M1009.5,1178.5h16a4,4,0,0,1,4,4v14a4,4,0,0,1,-4,4h-16a4,4,0,0,1,-4,-4v-14a4,4,0,0,1,4,-4z"></path><path id="kity_path_453" fill="#666" stroke="none" d="M1024.114,1194.724h-1.278c-1.668,0,-3.07,-1.07,-3.599,-2.556h4.877c0.707,0,1.278,-0.571,1.278,-1.278V1188.334c0,-0.707,-0.571,-1.278,-1.278,-1.278h-4.877C1019.766,1185.571,1021.168,1184.5,1022.836,1184.5h1.278c2.116,0,3.834,1.716,3.834,3.834V1190.89C1027.948,1193.008,1026.23,1194.724,1024.114,1194.724zM1012.612,1189.612c0,-0.707,0.573,-1.278,1.278,-1.278h7.668c0.707,0,1.278,0.571,1.278,1.278S1022.265,1190.89,1021.558,1190.89H1013.89C1013.185,1190.89,1012.612,1190.319,1012.612,1189.612zM1010.056,1188.334V1190.89c0,0.707,0.573,1.278,1.278,1.278h4.877c-0.528,1.486,-1.932,2.556,-3.599,2.556H1011.334C1009.216,1194.724,1007.5,1193.008,1007.5,1190.89V1188.334C1007.5,1186.216,1009.216,1184.5,1011.334,1184.5h1.278c1.667,0,3.071,1.071,3.599,2.556H1011.334C1010.629,1187.056,1010.056,1187.627,1010.056,1188.334z"></path></a></g><g id="minder_node29"><g id="node_expander33" style="cursor: pointer;"><path id="kity_path_656" fill="white" stroke="gray" d="M776.5,1375.5A6,6,0,1,1,764.5,1375.5A6,6,0,1,1,776.5,1375.5"></path><path id="kity_path_657" fill="none" stroke="gray" d="M766,1375.5L775,1375.5"></path></g><path id="node_outline34" fill="rgb(238, 243, 246)" stroke="rgb(115, 161, 191)" d="M780.5,1362.5h56a3,3,0,0,1,3,3v20a3,3,0,0,1,-3,3h-56a3,3,0,0,1,-3,-3v-20a3,3,0,0,1,3,-3z" stroke-width="1"></path><g id="node_text34" fill="black"><text id="kity_text_219" text-rendering="inherit" font-size="14" dy=".8em" y="1368.5" x="797.5">es6</text></g></g><g id="minder_node30"><g id="node_expander28" display="none" style="cursor: pointer;"><path id="kity_path_641" fill="white" stroke="gray" d="M879.5,1261.5A6,6,0,1,1,867.5,1261.5A6,6,0,1,1,879.5,1261.5"></path><path id="kity_path_642" fill="none" stroke="gray"></path></g><path id="node_outline29" fill="none" stroke="none" d="M884.5,1245.5h122a5,5,0,0,1,5,5v22a5,5,0,0,1,-5,5h-122a5,5,0,0,1,-5,-5v-22a5,5,0,0,1,5,-5z"></path><g id="node_text29" fill="black"><text id="kity_text_209" text-rendering="inherit" font-size="12" dy=".8em" y="1255.5" x="914.5">generator</text></g><g id="node_priority14"><path id="kity_path_345" fill="#01467F" stroke="none" d="M890,1265c0,3.866,3.134,7,7,7h6c3.866,0,7,-3.134,7,-7V1259H890V1265z"></path><path id="kity_path_346" fill="#0074FF" stroke="none" d="M910,1262c0,3.866,-3.134,7,-7,7H897c-3.866,0,-7,-3.134,-7,-7V1259c0,-3.866,3.134,-7,7,-7h6c3.866,0,7,3.134,7,7V1262z" opacity="0.8"></path><text id="kity_text_347" text-rendering="geometricPrecision" x="899" y="1261.5" text-anchor="middle" font-style="italic" font-size="12" fill="white" dy="4">2</text></g><a id="kity_a_455" xlink:href="https://www.jianshu.com/p/e0778b004596" target="_blank" xlink:title="https://www.jianshu.com/p/e0778b004596" style="cursor: pointer;"><path id="kity_path_457" fill="rgba(255, 255, 255, 0)" stroke="none" d="M981.5,1250.5h16a4,4,0,0,1,4,4v14a4,4,0,0,1,-4,4h-16a4,4,0,0,1,-4,-4v-14a4,4,0,0,1,4,-4z"></path><path id="kity_path_456" fill="#666" stroke="none" d="M996.114,1266.724h-1.278c-1.668,0,-3.07,-1.07,-3.599,-2.556h4.877c0.707,0,1.278,-0.571,1.278,-1.278V1260.334c0,-0.707,-0.571,-1.278,-1.278,-1.278h-4.877C991.766,1257.571,993.168,1256.5,994.836,1256.5h1.278c2.116,0,3.834,1.716,3.834,3.834V1262.89C999.948,1265.008,998.23,1266.724,996.114,1266.724zM984.612,1261.612c0,-0.707,0.573,-1.278,1.278,-1.278h7.668c0.707,0,1.278,0.571,1.278,1.278S994.265,1262.89,993.558,1262.89H985.89C985.185,1262.89,984.612,1262.319,984.612,1261.612zM982.056,1260.334V1262.89c0,0.707,0.573,1.278,1.278,1.278h4.877c-0.528,1.486,-1.932,2.556,-3.599,2.556H983.334C981.216,1266.724,979.5,1265.008,979.5,1262.89V1260.334C979.5,1258.216,981.216,1256.5,983.334,1256.5h1.278c1.667,0,3.071,1.071,3.599,2.556H983.334C982.629,1259.056,982.056,1259.627,982.056,1260.334z"></path></a></g><g id="minder_node31"><g id="node_expander29" display="none" style="cursor: pointer;"><path id="kity_path_644" fill="white" stroke="gray" d="M879.5,1323.5A6,6,0,1,1,867.5,1323.5A6,6,0,1,1,879.5,1323.5"></path><path id="kity_path_645" fill="none" stroke="gray"></path></g><path id="node_outline30" fill="none" stroke="none" d="M884.5,1307.5h110a5,5,0,0,1,5,5v22a5,5,0,0,1,-5,5h-110a5,5,0,0,1,-5,-5v-22a5,5,0,0,1,5,-5z"></path><g id="node_text30" fill="black"><text id="kity_text_211" text-rendering="inherit" font-size="12" dy=".8em" y="1317.5" x="914.5">promise</text></g><g id="node_priority15"><path id="kity_path_350" fill="#01467F" stroke="none" d="M890,1327c0,3.866,3.134,7,7,7h6c3.866,0,7,-3.134,7,-7V1321H890V1327z"></path><path id="kity_path_351" fill="#0074FF" stroke="none" d="M910,1324c0,3.866,-3.134,7,-7,7H897c-3.866,0,-7,-3.134,-7,-7V1321c0,-3.866,3.134,-7,7,-7h6c3.866,0,7,3.134,7,7V1324z" opacity="0.8"></path><text id="kity_text_352" text-rendering="geometricPrecision" x="899" y="1323.5" text-anchor="middle" font-style="italic" font-size="12" fill="white" dy="4">2</text></g><a id="kity_a_458" xlink:href="https://www.jianshu.com/p/b497eab58ed7" target="_blank" xlink:title="https://www.jianshu.com/p/b497eab58ed7" style="cursor: pointer;"><path id="kity_path_460" fill="rgba(255, 255, 255, 0)" stroke="none" d="M969.5,1312.5h16a4,4,0,0,1,4,4v14a4,4,0,0,1,-4,4h-16a4,4,0,0,1,-4,-4v-14a4,4,0,0,1,4,-4z"></path><path id="kity_path_459" fill="#666" stroke="none" d="M984.114,1328.724h-1.278c-1.668,0,-3.07,-1.07,-3.599,-2.556h4.877c0.707,0,1.278,-0.571,1.278,-1.278V1322.334c0,-0.707,-0.571,-1.278,-1.278,-1.278h-4.877C979.766,1319.571,981.168,1318.5,982.836,1318.5h1.278c2.116,0,3.834,1.716,3.834,3.834V1324.89C987.948,1327.008,986.23,1328.724,984.114,1328.724zM972.612,1323.612c0,-0.707,0.573,-1.278,1.278,-1.278h7.668c0.707,0,1.278,0.571,1.278,1.278S982.265,1324.89,981.558,1324.89H973.89C973.185,1324.89,972.612,1324.319,972.612,1323.612zM970.056,1322.334V1324.89c0,0.707,0.573,1.278,1.278,1.278h4.877c-0.528,1.486,-1.932,2.556,-3.599,2.556H971.334C969.216,1328.724,967.5,1327.008,967.5,1324.89V1322.334C967.5,1320.216,969.216,1318.5,971.334,1318.5h1.278c1.667,0,3.071,1.071,3.599,2.556H971.334C970.629,1321.056,970.056,1321.627,970.056,1322.334z"></path></a></g><g id="minder_node32"><g id="node_expander30" display="none" style="cursor: pointer;"><path id="kity_path_647" fill="white" stroke="gray" d="M879.5,1380.5A6,6,0,1,1,867.5,1380.5A6,6,0,1,1,879.5,1380.5"></path><path id="kity_path_648" fill="none" stroke="gray"></path></g><path id="node_outline31" fill="none" stroke="none" d="M884.5,1369.5h38a5,5,0,0,1,5,5v12a5,5,0,0,1,-5,5h-38a5,5,0,0,1,-5,-5v-12a5,5,0,0,1,5,-5z"></path><g id="node_text31" fill="black"><text id="kity_text_213" text-rendering="inherit" font-size="12" dy=".8em" y="1374.5" x="889.5">class</text></g></g><g id="minder_node33"><g id="node_expander31" display="none" style="cursor: pointer;"><path id="kity_path_650" fill="white" stroke="gray" d="M879.5,1432.5A6,6,0,1,1,867.5,1432.5A6,6,0,1,1,879.5,1432.5"></path><path id="kity_path_651" fill="none" stroke="gray"></path></g><path id="node_outline32" fill="none" stroke="none" d="M884.5,1421.5h41a5,5,0,0,1,5,5v12a5,5,0,0,1,-5,5h-41a5,5,0,0,1,-5,-5v-12a5,5,0,0,1,5,-5z"></path><g id="node_text32" fill="black"><text id="kity_text_215" text-rendering="inherit" font-size="12" dy=".8em" y="1426.5" x="889.5">fetch</text></g></g><g id="minder_node34"><g id="node_expander32" display="none" style="cursor: pointer;"><path id="kity_path_653" fill="white" stroke="gray" d="M879.5,1489.5A6,6,0,1,1,867.5,1489.5A6,6,0,1,1,879.5,1489.5"></path><path id="kity_path_654" fill="none" stroke="gray"></path></g><path id="node_outline33" fill="none" stroke="none" d="M884.5,1473.5h136a5,5,0,0,1,5,5v22a5,5,0,0,1,-5,5h-136a5,5,0,0,1,-5,-5v-22a5,5,0,0,1,5,-5z"></path><g id="node_text33" fill="black"><text id="kity_text_217" text-rendering="inherit" font-size="12" dy=".8em" y="1483.5" x="914.5">async/await</text></g><g id="node_priority16"><path id="kity_path_355" fill="#01467F" stroke="none" d="M890,1493c0,3.866,3.134,7,7,7h6c3.866,0,7,-3.134,7,-7V1487H890V1493z"></path><path id="kity_path_356" fill="#0074FF" stroke="none" d="M910,1490c0,3.866,-3.134,7,-7,7H897c-3.866,0,-7,-3.134,-7,-7V1487c0,-3.866,3.134,-7,7,-7h6c3.866,0,7,3.134,7,7V1490z" opacity="0.8"></path><text id="kity_text_357" text-rendering="geometricPrecision" x="899" y="1489.5" text-anchor="middle" font-style="italic" font-size="12" fill="white" dy="4">2</text></g><a id="kity_a_461" xlink:href="https://www.jianshu.com/p/8d73e187b9e1" target="_blank" xlink:title="https://www.jianshu.com/p/8d73e187b9e1" style="cursor: pointer;"><path id="kity_path_463" fill="rgba(255, 255, 255, 0)" stroke="none" d="M995.5,1478.5h16a4,4,0,0,1,4,4v14a4,4,0,0,1,-4,4h-16a4,4,0,0,1,-4,-4v-14a4,4,0,0,1,4,-4z"></path><path id="kity_path_462" fill="#666" stroke="none" d="M1010.114,1494.724h-1.278c-1.668,0,-3.07,-1.07,-3.599,-2.556h4.877c0.707,0,1.278,-0.571,1.278,-1.278V1488.334c0,-0.707,-0.571,-1.278,-1.278,-1.278h-4.877C1005.766,1485.571,1007.168,1484.5,1008.836,1484.5h1.278c2.116,0,3.834,1.716,3.834,3.834V1490.89C1013.948,1493.008,1012.23,1494.724,1010.114,1494.724zM998.612,1489.612c0,-0.707,0.573,-1.278,1.278,-1.278h7.668c0.707,0,1.278,0.571,1.278,1.278S1008.265,1490.89,1007.558,1490.89H999.89C999.185,1490.89,998.612,1490.319,998.612,1489.612zM996.056,1488.334V1490.89c0,0.707,0.573,1.278,1.278,1.278h4.877c-0.528,1.486,-1.932,2.556,-3.599,2.556H997.334C995.216,1494.724,993.5,1493.008,993.5,1490.89V1488.334C993.5,1486.216,995.216,1484.5,997.334,1484.5h1.278c1.667,0,3.071,1.071,3.599,2.556H997.334C996.629,1487.056,996.056,1487.627,996.056,1488.334z"></path></a></g><g id="minder_node35"><g id="node_expander44" style="cursor: pointer;"><path id="kity_path_689" fill="white" stroke="gray" d="M486.5,305.5A6,6,0,1,1,474.5,305.5A6,6,0,1,1,486.5,305.5"></path><path id="kity_path_690" fill="none" stroke="gray" d="M476,305.5L485,305.5"></path></g><path id="node_outline45" fill="rgb(238, 243, 246)" stroke="rgb(115, 161, 191)" d="M375.5,289.5h95a3,3,0,0,1,3,3v26a3,3,0,0,1,-3,3h-95a3,3,0,0,1,-3,-3v-26a3,3,0,0,1,3,-3z" stroke-width="1"></path><g id="node_text45" fill="black"><text id="kity_text_241" text-rendering="inherit" font-size="14" dy=".8em" y="298.5" x="417.5">js基础</text></g><g id="node_priority24"><path id="kity_path_395" fill="#840023" stroke="none" d="M393,309c0,3.866,3.134,7,7,7h6c3.866,0,7,-3.134,7,-7V303H393V309z"></path><path id="kity_path_396" fill="#FF1200" stroke="none" d="M413,306c0,3.866,-3.134,7,-7,7H400c-3.866,0,-7,-3.134,-7,-7V303c0,-3.866,3.134,-7,7,-7h6c3.866,0,7,3.134,7,7V306z" opacity="0.8"></path><text id="kity_text_397" text-rendering="geometricPrecision" x="402" y="305.5" text-anchor="middle" font-style="italic" font-size="12" fill="white" dy="4">1</text></g></g><g id="minder_node36"><g id="node_expander34" display="none" style="cursor: pointer;"><path id="kity_path_659" fill="white" stroke="gray" d="M344.5,70.5A6,6,0,1,1,332.5,70.5A6,6,0,1,1,344.5,70.5"></path><path id="kity_path_660" fill="none" stroke="gray"></path></g><path id="node_outline35" fill="none" stroke="none" d="M239.5,54.5h88a5,5,0,0,1,5,5v22a5,5,0,0,1,-5,5h-88a5,5,0,0,1,-5,-5v-22a5,5,0,0,1,5,-5z"></path><g id="node_text35" fill="black"><text id="kity_text_221" text-rendering="inherit" font-size="12" dy=".8em" y="64.5" x="269.5">继承</text></g><g id="node_priority17"><path id="kity_path_360" fill="#840023" stroke="none" d="M245,74c0,3.866,3.134,7,7,7h6c3.866,0,7,-3.134,7,-7V68H245V74z"></path><path id="kity_path_361" fill="#FF1200" stroke="none" d="M265,71c0,3.866,-3.134,7,-7,7H252c-3.866,0,-7,-3.134,-7,-7V68c0,-3.866,3.134,-7,7,-7h6c3.866,0,7,3.134,7,7V71z" opacity="0.8"></path><text id="kity_text_362" text-rendering="geometricPrecision" x="254" y="70.5" text-anchor="middle" font-style="italic" font-size="12" fill="white" dy="4">1</text></g><a id="kity_a_464" xlink:href="https://www.jianshu.com/p/a6c005228a75" target="_blank" xlink:title="https://www.jianshu.com/p/a6c005228a75" style="cursor: pointer;"><path id="kity_path_466" fill="rgba(255, 255, 255, 0)" stroke="none" d="M302.5,59.5h16a4,4,0,0,1,4,4v14a4,4,0,0,1,-4,4h-16a4,4,0,0,1,-4,-4v-14a4,4,0,0,1,4,-4z"></path><path id="kity_path_465" fill="#666" stroke="none" d="M317.114,75.724h-1.278c-1.668,0,-3.07,-1.07,-3.599,-2.556h4.877c0.707,0,1.278,-0.571,1.278,-1.278V69.334c0,-0.707,-0.571,-1.278,-1.278,-1.278h-4.877C312.766,66.571,314.168,65.5,315.836,65.5h1.278c2.116,0,3.834,1.716,3.834,3.834V71.89C320.948,74.008,319.23,75.724,317.114,75.724zM305.612,70.612c0,-0.707,0.573,-1.278,1.278,-1.278h7.668c0.707,0,1.278,0.571,1.278,1.278S315.265,71.89,314.558,71.89H306.89C306.185,71.89,305.612,71.319,305.612,70.612zM303.056,69.334V71.89c0,0.707,0.573,1.278,1.278,1.278h4.877c-0.528,1.486,-1.932,2.556,-3.599,2.556H304.334C302.216,75.724,300.5,74.008,300.5,71.89V69.334C300.5,67.216,302.216,65.5,304.334,65.5h1.278c1.667,0,3.071,1.071,3.599,2.556H304.334C303.629,68.056,303.056,68.627,303.056,69.334z"></path></a></g><g id="minder_node37"><g id="node_expander35" display="none" style="cursor: pointer;"><path id="kity_path_662" fill="white" stroke="gray" d="M344.5,131.5A6,6,0,1,1,332.5,131.5A6,6,0,1,1,344.5,131.5"></path><path id="kity_path_663" fill="none" stroke="gray"></path></g><path id="node_outline36" fill="none" stroke="none" d="M268.5,116.5h59a5,5,0,0,1,5,5v20a5,5,0,0,1,-5,5h-59a5,5,0,0,1,-5,-5v-20a5,5,0,0,1,5,-5z"></path><g id="node_text36" fill="black"><text id="kity_text_223" text-rendering="inherit" font-size="12" dy=".8em" y="125.5" x="298.5">闭包</text></g><g id="node_priority18"><path id="kity_path_365" fill="#01467F" stroke="none" d="M274,135c0,3.866,3.134,7,7,7h6c3.866,0,7,-3.134,7,-7V129H274V135z"></path><path id="kity_path_366" fill="#0074FF" stroke="none" d="M294,132c0,3.866,-3.134,7,-7,7H281c-3.866,0,-7,-3.134,-7,-7V129c0,-3.866,3.134,-7,7,-7h6c3.866,0,7,3.134,7,7V132z" opacity="0.8"></path><text id="kity_text_367" text-rendering="geometricPrecision" x="283" y="131.5" text-anchor="middle" font-style="italic" font-size="12" fill="white" dy="4">2</text></g></g><g id="minder_node38"><g id="node_expander38" style="cursor: pointer;"><path id="kity_path_671" fill="white" stroke="gray" d="M344.5,218.5A6,6,0,1,1,332.5,218.5A6,6,0,1,1,344.5,218.5"></path><path id="kity_path_672" fill="none" stroke="gray" d="M334,218.5L343,218.5"></path></g><path id="node_outline39" fill="none" stroke="none" d="M268.5,203.5h59a5,5,0,0,1,5,5v20a5,5,0,0,1,-5,5h-59a5,5,0,0,1,-5,-5v-20a5,5,0,0,1,5,-5z"></path><g id="node_text39" fill="black"><text id="kity_text_229" text-rendering="inherit" font-size="12" dy=".8em" y="212.5" x="298.5">事件</text></g><g id="node_priority19"><path id="kity_path_370" fill="#840023" stroke="none" d="M274,222c0,3.866,3.134,7,7,7h6c3.866,0,7,-3.134,7,-7V216H274V222z"></path><path id="kity_path_371" fill="#FF1200" stroke="none" d="M294,219c0,3.866,-3.134,7,-7,7H281c-3.866,0,-7,-3.134,-7,-7V216c0,-3.866,3.134,-7,7,-7h6c3.866,0,7,3.134,7,7V219z" opacity="0.8"></path><text id="kity_text_372" text-rendering="geometricPrecision" x="283" y="218.5" text-anchor="middle" font-style="italic" font-size="12" fill="white" dy="4">1</text></g></g><g id="minder_node39"><g id="node_expander36" display="none" style="cursor: pointer;"><path id="kity_path_665" fill="white" stroke="gray" d="M235.5,187.5A6,6,0,1,1,223.5,187.5A6,6,0,1,1,235.5,187.5"></path><path id="kity_path_666" fill="none" stroke="gray"></path></g><path id="node_outline37" fill="none" stroke="none" d="M40.5,176.5h178a5,5,0,0,1,5,5v12a5,5,0,0,1,-5,5h-178a5,5,0,0,1,-5,-5v-12a5,5,0,0,1,5,-5z"></path><g id="node_text37" fill="black"><text id="kity_text_225" text-rendering="inherit" font-size="12" dy=".8em" y="181.5" x="45.5">绑定事件方法第三个参数的意义</text></g></g><g id="minder_node40"><g id="node_expander37" display="none" style="cursor: pointer;"><path id="kity_path_668" fill="white" stroke="gray" d="M235.5,244.5A6,6,0,1,1,223.5,244.5A6,6,0,1,1,235.5,244.5"></path><path id="kity_path_669" fill="none" stroke="gray"></path></g><path id="node_outline38" fill="none" stroke="none" d="M131.5,228.5h87a5,5,0,0,1,5,5v22a5,5,0,0,1,-5,5h-87a5,5,0,0,1,-5,-5v-22a5,5,0,0,1,5,-5z"></path><g id="node_text38" fill="black"><text id="kity_text_227" text-rendering="inherit" font-size="12" dy=".8em" y="238.5" x="136.5">三个阶段</text></g><a id="kity_a_467" xlink:href="https://www.jianshu.com/p/0d3d13ab5505" target="_blank" xlink:title="https://www.jianshu.com/p/0d3d13ab5505" style="cursor: pointer;"><path id="kity_path_469" fill="rgba(255, 255, 255, 0)" stroke="none" d="M193.5,233.5h16a4,4,0,0,1,4,4v14a4,4,0,0,1,-4,4h-16a4,4,0,0,1,-4,-4v-14a4,4,0,0,1,4,-4z"></path><path id="kity_path_468" fill="#666" stroke="none" d="M208.114,249.724h-1.278c-1.668,0,-3.07,-1.07,-3.599,-2.556h4.877c0.707,0,1.278,-0.571,1.278,-1.278V243.334c0,-0.707,-0.571,-1.278,-1.278,-1.278h-4.877C203.766,240.571,205.168,239.5,206.836,239.5h1.278c2.116,0,3.834,1.716,3.834,3.834V245.89C211.948,248.008,210.23,249.724,208.114,249.724zM196.612,244.612c0,-0.707,0.573,-1.278,1.278,-1.278h7.668c0.707,0,1.278,0.571,1.278,1.278S206.265,245.89,205.558,245.89H197.89C197.185,245.89,196.612,245.319,196.612,244.612zM194.056,243.334V245.89c0,0.707,0.573,1.278,1.278,1.278h4.877c-0.528,1.486,-1.932,2.556,-3.599,2.556H195.334C193.216,249.724,191.5,248.008,191.5,245.89V243.334C191.5,241.216,193.216,239.5,195.334,239.5h1.278c1.667,0,3.071,1.071,3.599,2.556H195.334C194.629,242.056,194.056,242.627,194.056,243.334z"></path></a></g><g id="minder_node41"><g id="node_expander39" display="none" style="cursor: pointer;"><path id="kity_path_674" fill="white" stroke="gray" d="M344.5,306.5A6,6,0,1,1,332.5,306.5A6,6,0,1,1,344.5,306.5"></path><path id="kity_path_675" fill="none" stroke="gray"></path></g><path id="node_outline40" fill="none" stroke="none" d="M239.5,290.5h88a5,5,0,0,1,5,5v22a5,5,0,0,1,-5,5h-88a5,5,0,0,1,-5,-5v-22a5,5,0,0,1,5,-5z"></path><g id="node_text40" fill="black"><text id="kity_text_231" text-rendering="inherit" font-size="12" dy=".8em" y="300.5" x="269.5">跨域</text></g><g id="node_priority20"><path id="kity_path_375" fill="#840023" stroke="none" d="M245,310c0,3.866,3.134,7,7,7h6c3.866,0,7,-3.134,7,-7V304H245V310z"></path><path id="kity_path_376" fill="#FF1200" stroke="none" d="M265,307c0,3.866,-3.134,7,-7,7H252c-3.866,0,-7,-3.134,-7,-7V304c0,-3.866,3.134,-7,7,-7h6c3.866,0,7,3.134,7,7V307z" opacity="0.8"></path><text id="kity_text_377" text-rendering="geometricPrecision" x="254" y="306.5" text-anchor="middle" font-style="italic" font-size="12" fill="white" dy="4">1</text></g><a id="kity_a_470" xlink:href="https://www.jianshu.com/p/7d23b48ff8b8" target="_blank" xlink:title="https://www.jianshu.com/p/7d23b48ff8b8" style="cursor: pointer;"><path id="kity_path_472" fill="rgba(255, 255, 255, 0)" stroke="none" d="M302.5,295.5h16a4,4,0,0,1,4,4v14a4,4,0,0,1,-4,4h-16a4,4,0,0,1,-4,-4v-14a4,4,0,0,1,4,-4z"></path><path id="kity_path_471" fill="#666" stroke="none" d="M317.114,311.724h-1.278c-1.668,0,-3.07,-1.07,-3.599,-2.556h4.877c0.707,0,1.278,-0.571,1.278,-1.278V305.334c0,-0.707,-0.571,-1.278,-1.278,-1.278h-4.877C312.766,302.571,314.168,301.5,315.836,301.5h1.278c2.116,0,3.834,1.716,3.834,3.834V307.89C320.948,310.008,319.23,311.724,317.114,311.724zM305.612,306.612c0,-0.707,0.573,-1.278,1.278,-1.278h7.668c0.707,0,1.278,0.571,1.278,1.278S315.265,307.89,314.558,307.89H306.89C306.185,307.89,305.612,307.319,305.612,306.612zM303.056,305.334V307.89c0,0.707,0.573,1.278,1.278,1.278h4.877c-0.528,1.486,-1.932,2.556,-3.599,2.556H304.334C302.216,311.724,300.5,310.008,300.5,307.89V305.334C300.5,303.216,302.216,301.5,304.334,301.5h1.278c1.667,0,3.071,1.071,3.599,2.556H304.334C303.629,304.056,303.056,304.627,303.056,305.334z"></path></a></g><g id="minder_node42"><g id="node_expander40" display="none" style="cursor: pointer;"><path id="kity_path_677" fill="white" stroke="gray" d="M344.5,368.5A6,6,0,1,1,332.5,368.5A6,6,0,1,1,344.5,368.5"></path><path id="kity_path_678" fill="none" stroke="gray"></path></g><path id="node_outline41" fill="none" stroke="none" d="M200.5,352.5h127a5,5,0,0,1,5,5v22a5,5,0,0,1,-5,5h-127a5,5,0,0,1,-5,-5v-22a5,5,0,0,1,5,-5z"></path><g id="node_text41" fill="black"><text id="kity_text_233" text-rendering="inherit" font-size="12" dy=".8em" y="362.5" x="230.5">event loop</text></g><g id="node_priority21"><path id="kity_path_380" fill="#006300" stroke="none" d="M206,372c0,3.866,3.134,7,7,7h6c3.866,0,7,-3.134,7,-7V366H206V372z"></path><path id="kity_path_381" fill="#00AF00" stroke="none" d="M226,369c0,3.866,-3.134,7,-7,7H213c-3.866,0,-7,-3.134,-7,-7V366c0,-3.866,3.134,-7,7,-7h6c3.866,0,7,3.134,7,7V369z" opacity="0.8"></path><text id="kity_text_382" text-rendering="geometricPrecision" x="215" y="368.5" text-anchor="middle" font-style="italic" font-size="12" fill="white" dy="4">3</text></g><a id="kity_a_473" xlink:href="https://www.jianshu.com/p/7d5e1ef8debe" target="_blank" xlink:title="https://www.jianshu.com/p/7d5e1ef8debe" style="cursor: pointer;"><path id="kity_path_475" fill="rgba(255, 255, 255, 0)" stroke="none" d="M302.5,357.5h16a4,4,0,0,1,4,4v14a4,4,0,0,1,-4,4h-16a4,4,0,0,1,-4,-4v-14a4,4,0,0,1,4,-4z"></path><path id="kity_path_474" fill="#666" stroke="none" d="M317.114,373.724h-1.278c-1.668,0,-3.07,-1.07,-3.599,-2.556h4.877c0.707,0,1.278,-0.571,1.278,-1.278V367.334c0,-0.707,-0.571,-1.278,-1.278,-1.278h-4.877C312.766,364.571,314.168,363.5,315.836,363.5h1.278c2.116,0,3.834,1.716,3.834,3.834V369.89C320.948,372.008,319.23,373.724,317.114,373.724zM305.612,368.612c0,-0.707,0.573,-1.278,1.278,-1.278h7.668c0.707,0,1.278,0.571,1.278,1.278S315.265,369.89,314.558,369.89H306.89C306.185,369.89,305.612,369.319,305.612,368.612zM303.056,367.334V369.89c0,0.707,0.573,1.278,1.278,1.278h4.877c-0.528,1.486,-1.932,2.556,-3.599,2.556H304.334C302.216,373.724,300.5,372.008,300.5,369.89V367.334C300.5,365.216,302.216,363.5,304.334,363.5h1.278c1.667,0,3.071,1.071,3.599,2.556H304.334C303.629,366.056,303.056,366.627,303.056,367.334z"></path></a></g><g id="minder_node43"><g id="node_expander41" display="none" style="cursor: pointer;"><path id="kity_path_680" fill="white" stroke="gray" d="M344.5,429.5A6,6,0,1,1,332.5,429.5A6,6,0,1,1,344.5,429.5"></path><path id="kity_path_681" fill="none" stroke="gray"></path></g><path id="node_outline42" fill="none" stroke="none" d="M256.5,414.5h71a5,5,0,0,1,5,5v20a5,5,0,0,1,-5,5h-71a5,5,0,0,1,-5,-5v-20a5,5,0,0,1,5,-5z"></path><g id="node_text42" fill="black"><text id="kity_text_235" text-rendering="inherit" font-size="12" dy=".8em" y="423.5" x="286.5">原型链</text></g><g id="node_priority22"><path id="kity_path_385" fill="#840023" stroke="none" d="M262,433c0,3.866,3.134,7,7,7h6c3.866,0,7,-3.134,7,-7V427H262V433z"></path><path id="kity_path_386" fill="#FF1200" stroke="none" d="M282,430c0,3.866,-3.134,7,-7,7H269c-3.866,0,-7,-3.134,-7,-7V427c0,-3.866,3.134,-7,7,-7h6c3.866,0,7,3.134,7,7V430z" opacity="0.8"></path><text id="kity_text_387" text-rendering="geometricPrecision" x="271" y="429.5" text-anchor="middle" font-style="italic" font-size="12" fill="white" dy="4">1</text></g></g><g id="minder_node44"><g id="node_expander42" display="none" style="cursor: pointer;"><path id="kity_path_683" fill="white" stroke="gray" d="M344.5,489.5A6,6,0,1,1,332.5,489.5A6,6,0,1,1,344.5,489.5"></path><path id="kity_path_684" fill="none" stroke="gray"></path></g><path id="node_outline43" fill="none" stroke="none" d="M175.5,474.5h152a5,5,0,0,1,5,5v20a5,5,0,0,1,-5,5h-152a5,5,0,0,1,-5,-5v-20a5,5,0,0,1,5,-5z"></path><g id="node_text43" fill="black"><text id="kity_text_237" text-rendering="inherit" font-size="12" dy=".8em" y="483.5" x="205.5">apply,call异同及作用</text></g><g id="node_priority23"><path id="kity_path_390" fill="#01467F" stroke="none" d="M181,493c0,3.866,3.134,7,7,7h6c3.866,0,7,-3.134,7,-7V487H181V493z"></path><path id="kity_path_391" fill="#0074FF" stroke="none" d="M201,490c0,3.866,-3.134,7,-7,7H188c-3.866,0,-7,-3.134,-7,-7V487c0,-3.866,3.134,-7,7,-7h6c3.866,0,7,3.134,7,7V490z" opacity="0.8"></path><text id="kity_text_392" text-rendering="geometricPrecision" x="190" y="489.5" text-anchor="middle" font-style="italic" font-size="12" fill="white" dy="4">2</text></g></g><g id="minder_node45"><g id="node_expander43" display="none" style="cursor: pointer;"><path id="kity_path_686" fill="white" stroke="gray" d="M344.5,545.5A6,6,0,1,1,332.5,545.5A6,6,0,1,1,344.5,545.5"></path><path id="kity_path_687" fill="none" stroke="gray"></path></g><path id="node_outline44" fill="none" stroke="none" d="M293.5,534.5h34a5,5,0,0,1,5,5v12a5,5,0,0,1,-5,5h-34a5,5,0,0,1,-5,-5v-12a5,5,0,0,1,5,-5z"></path><g id="node_text44" fill="black"><text id="kity_text_239" text-rendering="inherit" font-size="12" dy=".8em" y="539.5" x="298.5">正则</text></g></g><g id="minder_node46"><g id="node_expander49" style="cursor: pointer;"><path id="kity_path_704" fill="white" stroke="gray" d="M486.5,656.5A6,6,0,1,1,474.5,656.5A6,6,0,1,1,486.5,656.5"></path><path id="kity_path_705" fill="none" stroke="gray" d="M476,656.5L485,656.5"></path></g><path id="node_outline50" fill="rgb(238, 243, 246)" stroke="rgb(115, 161, 191)" d="M360.5,640.5h110a3,3,0,0,1,3,3v26a3,3,0,0,1,-3,3h-110a3,3,0,0,1,-3,-3v-26a3,3,0,0,1,3,-3z" stroke-width="1"></path><g id="node_text50" fill="black"><text id="kity_text_251" text-rendering="inherit" font-size="14" dy=".8em" y="649.5" x="402.5">jsBridge</text></g><g id="node_priority27"><path id="kity_path_410" fill="#01467F" stroke="none" d="M378,660c0,3.866,3.134,7,7,7h6c3.866,0,7,-3.134,7,-7V654H378V660z"></path><path id="kity_path_411" fill="#0074FF" stroke="none" d="M398,657c0,3.866,-3.134,7,-7,7H385c-3.866,0,-7,-3.134,-7,-7V654c0,-3.866,3.134,-7,7,-7h6c3.866,0,7,3.134,7,7V657z" opacity="0.8"></path><text id="kity_text_412" text-rendering="geometricPrecision" x="387" y="656.5" text-anchor="middle" font-style="italic" font-size="12" fill="white" dy="4">2</text></g></g><g id="minder_node47"><g id="node_expander45" display="none" style="cursor: pointer;"><path id="kity_path_692" fill="white" stroke="gray" d="M329.5,613.5A6,6,0,1,1,317.5,613.5A6,6,0,1,1,329.5,613.5"></path><path id="kity_path_693" fill="none" stroke="gray"></path></g><path id="node_outline46" fill="none" stroke="none" d="M224.5,597.5h88a5,5,0,0,1,5,5v22a5,5,0,0,1,-5,5h-88a5,5,0,0,1,-5,-5v-22a5,5,0,0,1,5,-5z"></path><g id="node_text46" fill="black"><text id="kity_text_243" text-rendering="inherit" font-size="12" dy=".8em" y="607.5" x="254.5">原理</text></g><g id="node_priority25"><path id="kity_path_400" fill="#840023" stroke="none" d="M230,617c0,3.866,3.134,7,7,7h6c3.866,0,7,-3.134,7,-7V611H230V617z"></path><path id="kity_path_401" fill="#FF1200" stroke="none" d="M250,614c0,3.866,-3.134,7,-7,7H237c-3.866,0,-7,-3.134,-7,-7V611c0,-3.866,3.134,-7,7,-7h6c3.866,0,7,3.134,7,7V614z" opacity="0.8"></path><text id="kity_text_402" text-rendering="geometricPrecision" x="239" y="613.5" text-anchor="middle" font-style="italic" font-size="12" fill="white" dy="4">1</text></g><a id="kity_a_476" xlink:href="https://www.cnblogs.com/dailc/p/5931324.html" target="_blank" xlink:title="https://www.cnblogs.com/dailc/p/5931324.html" style="cursor: pointer;"><path id="kity_path_478" fill="rgba(255, 255, 255, 0)" stroke="none" d="M287.5,602.5h16a4,4,0,0,1,4,4v14a4,4,0,0,1,-4,4h-16a4,4,0,0,1,-4,-4v-14a4,4,0,0,1,4,-4z"></path><path id="kity_path_477" fill="#666" stroke="none" d="M302.114,618.724h-1.278c-1.668,0,-3.07,-1.07,-3.599,-2.556h4.877c0.707,0,1.278,-0.571,1.278,-1.278V612.334c0,-0.707,-0.571,-1.278,-1.278,-1.278h-4.877C297.766,609.571,299.168,608.5,300.836,608.5h1.278c2.116,0,3.834,1.716,3.834,3.834V614.89C305.948,617.008,304.23,618.724,302.114,618.724zM290.612,613.612c0,-0.707,0.573,-1.278,1.278,-1.278h7.668c0.707,0,1.278,0.571,1.278,1.278S300.265,614.89,299.558,614.89H291.89C291.185,614.89,290.612,614.319,290.612,613.612zM288.056,612.334V614.89c0,0.707,0.573,1.278,1.278,1.278h4.877c-0.528,1.486,-1.932,2.556,-3.599,2.556H289.334C287.216,618.724,285.5,617.008,285.5,614.89V612.334C285.5,610.216,287.216,608.5,289.334,608.5h1.278c1.667,0,3.071,1.071,3.599,2.556H289.334C288.629,611.056,288.056,611.627,288.056,612.334z"></path></a></g><g id="minder_node48"><g id="node_expander48" style="cursor: pointer;"><path id="kity_path_701" fill="white" stroke="gray" d="M329.5,701.5A6,6,0,1,1,317.5,701.5A6,6,0,1,1,329.5,701.5"></path><path id="kity_path_702" fill="none" stroke="gray" d="M319,701.5L328,701.5"></path></g><path id="node_outline49" fill="none" stroke="none" d="M217.5,686.5h95a5,5,0,0,1,5,5v20a5,5,0,0,1,-5,5h-95a5,5,0,0,1,-5,-5v-20a5,5,0,0,1,5,-5z"></path><g id="node_text49" fill="black"><text id="kity_text_249" text-rendering="inherit" font-size="12" dy=".8em" y="695.5" x="247.5">遇到的问题</text></g><g id="node_priority26"><path id="kity_path_405" fill="#840023" stroke="none" d="M223,705c0,3.866,3.134,7,7,7h6c3.866,0,7,-3.134,7,-7V699H223V705z"></path><path id="kity_path_406" fill="#FF1200" stroke="none" d="M243,702c0,3.866,-3.134,7,-7,7H230c-3.866,0,-7,-3.134,-7,-7V699c0,-3.866,3.134,-7,7,-7h6c3.866,0,7,3.134,7,7V702z" opacity="0.8"></path><text id="kity_text_407" text-rendering="geometricPrecision" x="232" y="701.5" text-anchor="middle" font-style="italic" font-size="12" fill="white" dy="4">1</text></g></g><g id="minder_node49"><g id="node_expander46" display="none" style="cursor: pointer;"><path id="kity_path_695" fill="white" stroke="gray" d="M184.5,670.5A6,6,0,1,1,172.5,670.5A6,6,0,1,1,184.5,670.5"></path><path id="kity_path_696" fill="none" stroke="gray"></path></g><path id="node_outline47" fill="none" stroke="none" d="M25.5,659.5h142a5,5,0,0,1,5,5v12a5,5,0,0,1,-5,5h-142a5,5,0,0,1,-5,-5v-12a5,5,0,0,1,5,-5z"></path><g id="node_text47" fill="black"><text id="kity_text_245" text-rendering="inherit" font-size="12" dy=".8em" y="664.5" x="30.5">直接打开的文件无法使用</text></g></g><g id="minder_node50"><g id="node_expander47" display="none" style="cursor: pointer;"><path id="kity_path_698" fill="white" stroke="gray" d="M184.5,727.5A6,6,0,1,1,172.5,727.5A6,6,0,1,1,184.5,727.5"></path><path id="kity_path_699" fill="none" stroke="gray"></path></g><path id="node_outline48" fill="none" stroke="none" d="M55.5,711.5h112a5,5,0,0,1,5,5v22a5,5,0,0,1,-5,5h-112a5,5,0,0,1,-5,-5v-22a5,5,0,0,1,5,-5z"></path><g id="node_text48" fill="black"><text id="kity_text_247" text-rendering="inherit" font-size="12" dy=".8em" y="721.5" x="60.5">post数据丢失</text></g><a id="kity_a_479" xlink:href="https://www.cnblogs.com/NSong/p/6489802.html" target="_blank" xlink:title="https://www.cnblogs.com/NSong/p/6489802.html" style="cursor: pointer;"><path id="kity_path_481" fill="rgba(255, 255, 255, 0)" stroke="none" d="M142.5,716.5h16a4,4,0,0,1,4,4v14a4,4,0,0,1,-4,4h-16a4,4,0,0,1,-4,-4v-14a4,4,0,0,1,4,-4z"></path><path id="kity_path_480" fill="#666" stroke="none" d="M157.114,732.724h-1.278c-1.668,0,-3.07,-1.07,-3.599,-2.556h4.877c0.707,0,1.278,-0.571,1.278,-1.278V726.334c0,-0.707,-0.571,-1.278,-1.278,-1.278h-4.877C152.766,723.571,154.168,722.5,155.836,722.5h1.278c2.116,0,3.834,1.716,3.834,3.834V728.89C160.948,731.008,159.23,732.724,157.114,732.724zM145.612,727.612c0,-0.707,0.573,-1.278,1.278,-1.278h7.668c0.707,0,1.278,0.571,1.278,1.278S155.265,728.89,154.558,728.89H146.89C146.185,728.89,145.612,728.319,145.612,727.612zM143.056,726.334V728.89c0,0.707,0.573,1.278,1.278,1.278h4.877c-0.528,1.486,-1.932,2.556,-3.599,2.556H144.334C142.216,732.724,140.5,731.008,140.5,728.89V726.334C140.5,724.216,142.216,722.5,144.334,722.5h1.278c1.667,0,3.071,1.071,3.599,2.556H144.334C143.629,725.056,143.056,725.627,143.056,726.334z"></path></a></g><g id="minder_node51"><g id="node_expander52" style="cursor: pointer;"><path id="kity_path_713" fill="white" stroke="gray" d="M486.5,824.5A6,6,0,1,1,474.5,824.5A6,6,0,1,1,486.5,824.5"></path><path id="kity_path_714" fill="none" stroke="gray" d="M476,824.5L485,824.5"></path></g><path id="node_outline53" fill="rgb(238, 243, 246)" stroke="rgb(115, 161, 191)" d="M355.5,808.5h115a3,3,0,0,1,3,3v26a3,3,0,0,1,-3,3h-115a3,3,0,0,1,-3,-3v-26a3,3,0,0,1,3,-3z" stroke-width="1"></path><g id="node_text53" fill="black"><text id="kity_text_257" text-rendering="inherit" font-size="14" dy=".8em" y="817.5" x="397.5">性能优化</text></g><g id="node_priority29"><path id="kity_path_420" fill="#840023" stroke="none" d="M373,828c0,3.866,3.134,7,7,7h6c3.866,0,7,-3.134,7,-7V822H373V828z"></path><path id="kity_path_421" fill="#FF1200" stroke="none" d="M393,825c0,3.866,-3.134,7,-7,7H380c-3.866,0,-7,-3.134,-7,-7V822c0,-3.866,3.134,-7,7,-7h6c3.866,0,7,3.134,7,7V825z" opacity="0.8"></path><text id="kity_text_422" text-rendering="geometricPrecision" x="382" y="824.5" text-anchor="middle" font-style="italic" font-size="12" fill="white" dy="4">1</text></g></g><g id="minder_node52"><g id="node_expander50" display="none" style="cursor: pointer;"><path id="kity_path_707" fill="white" stroke="gray" d="M324.5,798.5A6,6,0,1,1,312.5,798.5A6,6,0,1,1,324.5,798.5"></path><path id="kity_path_708" fill="none" stroke="gray"></path></g><path id="node_outline51" fill="none" stroke="none" d="M171.5,782.5h136a5,5,0,0,1,5,5v22a5,5,0,0,1,-5,5h-136a5,5,0,0,1,-5,-5v-22a5,5,0,0,1,5,-5z"></path><g id="node_text51" fill="black"><text id="kity_text_253" text-rendering="inherit" font-size="12" dy=".8em" y="792.5" x="201.5">预加载的方式</text></g><g id="node_priority28"><path id="kity_path_415" fill="#01467F" stroke="none" d="M177,802c0,3.866,3.134,7,7,7h6c3.866,0,7,-3.134,7,-7V796H177V802z"></path><path id="kity_path_416" fill="#0074FF" stroke="none" d="M197,799c0,3.866,-3.134,7,-7,7H184c-3.866,0,-7,-3.134,-7,-7V796c0,-3.866,3.134,-7,7,-7h6c3.866,0,7,3.134,7,7V799z" opacity="0.8"></path><text id="kity_text_417" text-rendering="geometricPrecision" x="186" y="798.5" text-anchor="middle" font-style="italic" font-size="12" fill="white" dy="4">2</text></g><a id="kity_a_482" xlink:href="https://blog.csdn.net/franktaoge/article/details/51473823" target="_blank" xlink:title="https://blog.csdn.net/franktaoge/article/details/51473823" style="cursor: pointer;"><path id="kity_path_484" fill="rgba(255, 255, 255, 0)" stroke="none" d="M282.5,787.5h16a4,4,0,0,1,4,4v14a4,4,0,0,1,-4,4h-16a4,4,0,0,1,-4,-4v-14a4,4,0,0,1,4,-4z"></path><path id="kity_path_483" fill="#666" stroke="none" d="M297.114,803.724h-1.278c-1.668,0,-3.07,-1.07,-3.599,-2.556h4.877c0.707,0,1.278,-0.571,1.278,-1.278V797.334c0,-0.707,-0.571,-1.278,-1.278,-1.278h-4.877C292.766,794.571,294.168,793.5,295.836,793.5h1.278c2.116,0,3.834,1.716,3.834,3.834V799.89C300.948,802.008,299.23,803.724,297.114,803.724zM285.612,798.612c0,-0.707,0.573,-1.278,1.278,-1.278h7.668c0.707,0,1.278,0.571,1.278,1.278S295.265,799.89,294.558,799.89H286.89C286.185,799.89,285.612,799.319,285.612,798.612zM283.056,797.334V799.89c0,0.707,0.573,1.278,1.278,1.278h4.877c-0.528,1.486,-1.932,2.556,-3.599,2.556H284.334C282.216,803.724,280.5,802.008,280.5,799.89V797.334C280.5,795.216,282.216,793.5,284.334,793.5h1.278c1.667,0,3.071,1.071,3.599,2.556H284.334C283.629,796.056,283.056,796.627,283.056,797.334z"></path></a></g><g id="minder_node53"><g id="node_expander51" display="none" style="cursor: pointer;"><path id="kity_path_710" fill="white" stroke="gray" d="M324.5,855.5A6,6,0,1,1,312.5,855.5A6,6,0,1,1,324.5,855.5"></path><path id="kity_path_711" fill="none" stroke="gray"></path></g><path id="node_outline52" fill="none" stroke="none" d="M221.5,844.5h86a5,5,0,0,1,5,5v12a5,5,0,0,1,-5,5h-86a5,5,0,0,1,-5,-5v-12a5,5,0,0,1,5,-5z"></path><g id="node_text52" fill="black"><text id="kity_text_255" text-rendering="inherit" font-size="12" dy=".8em" y="849.5" x="226.5">离线&#xa0;Manifest</text></g></g><g id="minder_node54"><g id="node_expander54" style="cursor: pointer;"><path id="kity_path_719" fill="white" stroke="gray" d="M486.5,922.5A6,6,0,1,1,474.5,922.5A6,6,0,1,1,486.5,922.5"></path><path id="kity_path_720" fill="none" stroke="gray" d="M476,922.5L485,922.5"></path></g><path id="node_outline55" fill="rgb(238, 243, 246)" stroke="rgb(115, 161, 191)" d="M330.5,906.5h140a3,3,0,0,1,3,3v26a3,3,0,0,1,-3,3h-140a3,3,0,0,1,-3,-3v-26a3,3,0,0,1,3,-3z" stroke-width="1"></path><g id="node_text55" fill="black"><text id="kity_text_261" text-rendering="inherit" font-size="14" dy=".8em" y="915.5" x="372.5">react-router</text></g><g id="node_priority30"><path id="kity_path_425" fill="#840023" stroke="none" d="M348,926c0,3.866,3.134,7,7,7h6c3.866,0,7,-3.134,7,-7V920H348V926z"></path><path id="kity_path_426" fill="#FF1200" stroke="none" d="M368,923c0,3.866,-3.134,7,-7,7H355c-3.866,0,-7,-3.134,-7,-7V920c0,-3.866,3.134,-7,7,-7h6c3.866,0,7,3.134,7,7V923z" opacity="0.8"></path><text id="kity_text_427" text-rendering="geometricPrecision" x="357" y="922.5" text-anchor="middle" font-style="italic" font-size="12" fill="white" dy="4">1</text></g></g><g id="minder_node55"><g id="node_expander53" display="none" style="cursor: pointer;"><path id="kity_path_716" fill="white" stroke="gray" d="M299.5,922.5A6,6,0,1,1,287.5,922.5A6,6,0,1,1,299.5,922.5"></path><path id="kity_path_717" fill="none" stroke="gray"></path></g><path id="node_outline54" fill="none" stroke="none" d="M219.5,906.5h63a5,5,0,0,1,5,5v22a5,5,0,0,1,-5,5h-63a5,5,0,0,1,-5,-5v-22a5,5,0,0,1,5,-5z"></path><g id="node_text54" fill="black"><text id="kity_text_259" text-rendering="inherit" font-size="12" dy=".8em" y="916.5" x="224.5">原理</text></g><a id="kity_a_485" xlink:href="https://github.com/joeyguo/blog/issues/2" target="_blank" xlink:title="https://github.com/joeyguo/blog/issues/2" style="cursor: pointer;"><path id="kity_path_487" fill="rgba(255, 255, 255, 0)" stroke="none" d="M257.5,911.5h16a4,4,0,0,1,4,4v14a4,4,0,0,1,-4,4h-16a4,4,0,0,1,-4,-4v-14a4,4,0,0,1,4,-4z"></path><path id="kity_path_486" fill="#666" stroke="none" d="M272.114,927.724h-1.278c-1.668,0,-3.07,-1.07,-3.599,-2.556h4.877c0.707,0,1.278,-0.571,1.278,-1.278V921.334c0,-0.707,-0.571,-1.278,-1.278,-1.278h-4.877C267.766,918.571,269.168,917.5,270.836,917.5h1.278c2.116,0,3.834,1.716,3.834,3.834V923.89C275.948,926.008,274.23,927.724,272.114,927.724zM260.612,922.612c0,-0.707,0.573,-1.278,1.278,-1.278h7.668c0.707,0,1.278,0.571,1.278,1.278S270.265,923.89,269.558,923.89H261.89C261.185,923.89,260.612,923.319,260.612,922.612zM258.056,921.334V923.89c0,0.707,0.573,1.278,1.278,1.278h4.877c-0.528,1.486,-1.932,2.556,-3.599,2.556H259.334C257.216,927.724,255.5,926.008,255.5,923.89V921.334C255.5,919.216,257.216,917.5,259.334,917.5h1.278c1.667,0,3.071,1.071,3.599,2.556H259.334C258.629,920.056,258.056,920.627,258.056,921.334z"></path></a></g><g id="minder_node56"><g id="node_expander62" style="cursor: pointer;"><path id="kity_path_743" fill="white" stroke="gray" d="M486.5,1160.5A6,6,0,1,1,474.5,1160.5A6,6,0,1,1,486.5,1160.5"></path><path id="kity_path_744" fill="none" stroke="gray" d="M476,1160.5L485,1160.5"></path></g><path id="node_outline63" fill="rgb(238, 243, 246)" stroke="rgb(115, 161, 191)" d="M416.5,1147.5h54a3,3,0,0,1,3,3v20a3,3,0,0,1,-3,3h-54a3,3,0,0,1,-3,-3v-20a3,3,0,0,1,3,-3z" stroke-width="1"></path><g id="node_text63" fill="black"><text id="kity_text_277" text-rendering="inherit" font-size="14" dy=".8em" y="1153.5" x="433.5">css</text></g></g><g id="minder_node57"><g id="node_expander55" display="none" style="cursor: pointer;"><path id="kity_path_722" fill="white" stroke="gray" d="M385.5,989.5A6,6,0,1,1,373.5,989.5A6,6,0,1,1,385.5,989.5"></path><path id="kity_path_723" fill="none" stroke="gray"></path></g><path id="node_outline56" fill="none" stroke="none" d="M311.5,978.5h57a5,5,0,0,1,5,5v12a5,5,0,0,1,-5,5h-57a5,5,0,0,1,-5,-5v-12a5,5,0,0,1,5,-5z"></path><g id="node_text56" fill="black"><text id="kity_text_263" text-rendering="inherit" font-size="12" dy=".8em" y="983.5" x="316.5">sass/less</text></g></g><g id="minder_node58"><g id="node_expander56" display="none" style="cursor: pointer;"><path id="kity_path_725" fill="white" stroke="gray" d="M385.5,1046.5A6,6,0,1,1,373.5,1046.5A6,6,0,1,1,385.5,1046.5"></path><path id="kity_path_726" fill="none" stroke="gray"></path></g><path id="node_outline57" fill="none" stroke="none" d="M307.5,1030.5h61a5,5,0,0,1,5,5v22a5,5,0,0,1,-5,5h-61a5,5,0,0,1,-5,-5v-22a5,5,0,0,1,5,-5z"></path><g id="node_text57" fill="black"><text id="kity_text_265" text-rendering="inherit" font-size="12" dy=".8em" y="1040.5" x="312.5">BFC</text></g><a id="kity_a_488" xlink:href="https://www.jianshu.com/p/7e04ed3f4bea" target="_blank" xlink:title="https://www.jianshu.com/p/7e04ed3f4bea" style="cursor: pointer;"><path id="kity_path_490" fill="rgba(255, 255, 255, 0)" stroke="none" d="M343.5,1035.5h16a4,4,0,0,1,4,4v14a4,4,0,0,1,-4,4h-16a4,4,0,0,1,-4,-4v-14a4,4,0,0,1,4,-4z"></path><path id="kity_path_489" fill="#666" stroke="none" d="M358.114,1051.724h-1.278c-1.668,0,-3.07,-1.07,-3.599,-2.556h4.877c0.707,0,1.278,-0.571,1.278,-1.278V1045.334c0,-0.707,-0.571,-1.278,-1.278,-1.278h-4.877C353.766,1042.571,355.168,1041.5,356.836,1041.5h1.278c2.116,0,3.834,1.716,3.834,3.834V1047.89C361.948,1050.008,360.23,1051.724,358.114,1051.724zM346.612,1046.612c0,-0.707,0.573,-1.278,1.278,-1.278h7.668c0.707,0,1.278,0.571,1.278,1.278S356.265,1047.89,355.558,1047.89H347.89C347.185,1047.89,346.612,1047.319,346.612,1046.612zM344.056,1045.334V1047.89c0,0.707,0.573,1.278,1.278,1.278h4.877c-0.528,1.486,-1.932,2.556,-3.599,2.556H345.334C343.216,1051.724,341.5,1050.008,341.5,1047.89V1045.334C341.5,1043.216,343.216,1041.5,345.334,1041.5h1.278c1.667,0,3.071,1.071,3.599,2.556H345.334C344.629,1044.056,344.056,1044.627,344.056,1045.334z"></path></a></g><g id="minder_node59"><g id="node_expander57" display="none" style="cursor: pointer;"><path id="kity_path_728" fill="white" stroke="gray" d="M385.5,1103.5A6,6,0,1,1,373.5,1103.5A6,6,0,1,1,385.5,1103.5"></path><path id="kity_path_729" fill="none" stroke="gray"></path></g><path id="node_outline58" fill="none" stroke="none" d="M322.5,1092.5h46a5,5,0,0,1,5,5v12a5,5,0,0,1,-5,5h-46a5,5,0,0,1,-5,-5v-12a5,5,0,0,1,5,-5z"></path><g id="node_text58" fill="black"><text id="kity_text_267" text-rendering="inherit" font-size="12" dy=".8em" y="1097.5" x="327.5">清浮动</text></g></g><g id="minder_node60"><g id="node_expander58" display="none" style="cursor: pointer;"><path id="kity_path_731" fill="white" stroke="gray" d="M385.5,1160.5A6,6,0,1,1,373.5,1160.5A6,6,0,1,1,385.5,1160.5"></path><path id="kity_path_732" fill="none" stroke="gray"></path></g><path id="node_outline59" fill="none" stroke="none" d="M288.5,1144.5h80a5,5,0,0,1,5,5v22a5,5,0,0,1,-5,5h-80a5,5,0,0,1,-5,-5v-22a5,5,0,0,1,5,-5z"></path><g id="node_text59" fill="black"><text id="kity_text_269" text-rendering="inherit" font-size="12" dy=".8em" y="1154.5" x="293.5">z-index</text></g><a id="kity_a_491" xlink:href="https://www.cnblogs.com/zhuzhenwei918/p/6112034.html" target="_blank" xlink:title="https://www.cnblogs.com/zhuzhenwei918/p/6112034.html" style="cursor: pointer;"><path id="kity_path_493" fill="rgba(255, 255, 255, 0)" stroke="none" d="M343.5,1149.5h16a4,4,0,0,1,4,4v14a4,4,0,0,1,-4,4h-16a4,4,0,0,1,-4,-4v-14a4,4,0,0,1,4,-4z"></path><path id="kity_path_492" fill="#666" stroke="none" d="M358.114,1165.724h-1.278c-1.668,0,-3.07,-1.07,-3.599,-2.556h4.877c0.707,0,1.278,-0.571,1.278,-1.278V1159.334c0,-0.707,-0.571,-1.278,-1.278,-1.278h-4.877C353.766,1156.571,355.168,1155.5,356.836,1155.5h1.278c2.116,0,3.834,1.716,3.834,3.834V1161.89C361.948,1164.008,360.23,1165.724,358.114,1165.724zM346.612,1160.612c0,-0.707,0.573,-1.278,1.278,-1.278h7.668c0.707,0,1.278,0.571,1.278,1.278S356.265,1161.89,355.558,1161.89H347.89C347.185,1161.89,346.612,1161.319,346.612,1160.612zM344.056,1159.334V1161.89c0,0.707,0.573,1.278,1.278,1.278h4.877c-0.528,1.486,-1.932,2.556,-3.599,2.556H345.334C343.216,1165.724,341.5,1164.008,341.5,1161.89V1159.334C341.5,1157.216,343.216,1155.5,345.334,1155.5h1.278c1.667,0,3.071,1.071,3.599,2.556H345.334C344.629,1158.056,344.056,1158.627,344.056,1159.334z"></path></a></g><g id="minder_node61"><g id="node_expander59" display="none" style="cursor: pointer;"><path id="kity_path_734" fill="white" stroke="gray" d="M385.5,1217.5A6,6,0,1,1,373.5,1217.5A6,6,0,1,1,385.5,1217.5"></path><path id="kity_path_735" fill="none" stroke="gray"></path></g><path id="node_outline60" fill="none" stroke="none" d="M334.5,1206.5h34a5,5,0,0,1,5,5v12a5,5,0,0,1,-5,5h-34a5,5,0,0,1,-5,-5v-12a5,5,0,0,1,5,-5z"></path><g id="node_text60" fill="black"><text id="kity_text_271" text-rendering="inherit" font-size="12" dy=".8em" y="1211.5" x="339.5">权重</text></g></g><g id="minder_node62"><g id="node_expander60" display="none" style="cursor: pointer;"><path id="kity_path_737" fill="white" stroke="gray" d="M385.5,1269.5A6,6,0,1,1,373.5,1269.5A6,6,0,1,1,385.5,1269.5"></path><path id="kity_path_738" fill="none" stroke="gray"></path></g><path id="node_outline61" fill="none" stroke="none" d="M293.5,1258.5h75a5,5,0,0,1,5,5v12a5,5,0,0,1,-5,5h-75a5,5,0,0,1,-5,-5v-12a5,5,0,0,1,5,-5z"></path><g id="node_text61" fill="black"><text id="kity_text_273" text-rendering="inherit" font-size="12" dy=".8em" y="1263.5" x="298.5">伪元素/伪类</text></g></g><g id="minder_node63"><g id="node_expander61" display="none" style="cursor: pointer;"><path id="kity_path_740" fill="white" stroke="gray" d="M385.5,1326.5A6,6,0,1,1,373.5,1326.5A6,6,0,1,1,385.5,1326.5"></path><path id="kity_path_741" fill="none" stroke="gray"></path></g><path id="node_outline62" fill="none" stroke="none" d="M305.5,1310.5h63a5,5,0,0,1,5,5v22a5,5,0,0,1,-5,5h-63a5,5,0,0,1,-5,-5v-22a5,5,0,0,1,5,-5z"></path><g id="node_text62" fill="black"><text id="kity_text_275" text-rendering="inherit" font-size="12" dy=".8em" y="1320.5" x="310.5">居中</text></g><a id="kity_a_494" xlink:href="https://stackoverflow.com/questions/19461521/how-to-center-an-element-horizontally-and-vertically" target="_blank" xlink:title="https://stackoverflow.com/questions/19461521/how-to-center-an-element-horizontally-and-vertically" style="cursor: pointer;"><path id="kity_path_496" fill="rgba(255, 255, 255, 0)" stroke="none" d="M343.5,1315.5h16a4,4,0,0,1,4,4v14a4,4,0,0,1,-4,4h-16a4,4,0,0,1,-4,-4v-14a4,4,0,0,1,4,-4z"></path><path id="kity_path_495" fill="#666" stroke="none" d="M358.114,1331.724h-1.278c-1.668,0,-3.07,-1.07,-3.599,-2.556h4.877c0.707,0,1.278,-0.571,1.278,-1.278V1325.334c0,-0.707,-0.571,-1.278,-1.278,-1.278h-4.877C353.766,1322.571,355.168,1321.5,356.836,1321.5h1.278c2.116,0,3.834,1.716,3.834,3.834V1327.89C361.948,1330.008,360.23,1331.724,358.114,1331.724zM346.612,1326.612c0,-0.707,0.573,-1.278,1.278,-1.278h7.668c0.707,0,1.278,0.571,1.278,1.278S356.265,1327.89,355.558,1327.89H347.89C347.185,1327.89,346.612,1327.319,346.612,1326.612zM344.056,1325.334V1327.89c0,0.707,0.573,1.278,1.278,1.278h4.877c-0.528,1.486,-1.932,2.556,-3.599,2.556H345.334C343.216,1331.724,341.5,1330.008,341.5,1327.89V1325.334C341.5,1323.216,343.216,1321.5,345.334,1321.5h1.278c1.667,0,3.071,1.071,3.599,2.556H345.334C344.629,1324.056,344.056,1324.627,344.056,1325.334z"></path></a></g></g></g></svg>